<svg xmlns="http://www.w3.org/2000/svg" xmlns:xlink="http://www.w3.org/1999/xlink" fill="none" version="1.1" width="16" height="16" viewBox="0 0 16 16"><defs><clipPath id="master_svg0_4453_79973"><rect x="0" y="0" width="16" height="16" rx="0"/></clipPath><linearGradient x1="0.9308781027793884" y1="0.06910843402147293" x2="0.06971625238656999" y2="0.9302687644958496" id="master_svg1_4453_75402"><stop offset="0%" stop-color="#B94DFF" stop-opacity="1"/><stop offset="70.01479864120483%" stop-color="#7C4DFF" stop-opacity="1"/></linearGradient></defs><g clip-path="url(#master_svg0_4453_79973)"><g><path d="M3.80712,6.0838L6.09645,6.0838L6.09645,3.79446C6.09645,2.52964,5.07195,1.50514,3.80712,1.50514C2.5423,1.50514,1.51778,2.52964,1.51778,3.79446C1.51778,5.0593,2.55494,6.0838,3.80712,6.0838ZM7.6269,12.1929L7.6269,9.90355L12.2056,9.90355C13.4704,9.90355,14.4949,10.9281,14.4949,12.1929C14.4949,13.4577,13.4704,14.4822,12.2056,14.4822C10.9407,14.4822,9.9162,13.4577,9.9162,12.1929L9.9162,10.6624L8.38575,10.6624L8.38575,12.1929C8.38575,14.2925,10.0933,16,12.1929,16C14.2925,16,16,14.2925,16,12.1929C16,10.0933,14.2925,8.38575,12.1929,8.38575L7.61425,8.38575L7.61425,7.6269L12.1929,7.6269C14.2925,7.6269,16,5.91935,16,3.81977C16,1.72016,14.2925,0,12.1929,0C10.0933,0,8.38575,1.70751,8.38575,3.80712L8.38575,5.33755L9.9162,5.33755L9.9162,3.80712C9.9162,2.5423,10.9407,1.51778,12.2056,1.51778C13.4704,1.51778,14.4949,2.5423,14.4949,3.80712C14.4949,5.07195,13.4704,6.09645,12.2056,6.09645L7.6269,6.09645L7.6269,3.80712C7.6269,1.70751,5.91935,0,3.80712,0C1.69486,0,0,1.70751,0,3.80712C0,5.9067,1.70751,7.61425,3.80712,7.61425L6.09645,7.61425L6.09645,8.3731L3.80712,8.3731C1.69486,8.3731,0,10.0807,0,12.1803C0,14.2798,1.70751,16,3.80712,16C5.91935,16,7.6269,14.2925,7.6269,12.1929ZM1.53043,12.1929C1.53043,13.4577,2.55494,14.4822,3.81977,14.4822C5.0846,14.4822,6.1091,13.4577,6.1091,12.1929L6.1091,9.90355L3.81977,9.90355C2.55494,9.90355,1.53043,10.9281,1.53043,12.1929Z" fill-rule="evenodd" fill="url(#master_svg1_4453_75402)" fill-opacity="1" style="mix-blend-mode:passthrough"/></g></g></svg>