<svg xmlns="http://www.w3.org/2000/svg" xmlns:xlink="http://www.w3.org/1999/xlink" fill="none" version="1.1" width="20" height="20" viewBox="0 0 20 20"><defs><clipPath id="master_svg0_4453_79852"><rect x="0" y="0" width="20" height="20" rx="0"/></clipPath></defs><g clip-path="url(#master_svg0_4453_79852)"><g><path d="M8.73019,1.5207606269302367L3.154692,4.672436626930237Q2.304517,5.153016626930237,2.090551,5.5158666269302365Q1.875,5.881396626930237,1.875,6.848326626930237L1.875,13.151666626930236Q1.875,14.118666626930237,2.090572,14.484166626930238Q2.304521,14.846966626930238,3.154626,15.327566626930237L3.154692,15.327566626930237L8.73022,18.479266626930237L8.730419999999999,18.479366626930236Q9.57779,18.958366626930236,10,18.958366626930236Q10.42221,18.958366626930236,11.26958,18.479366626930236L11.26981,18.479266626930237L16.845399999999998,15.327566626930237L16.845599999999997,15.327466626930237Q17.6955,14.846866626930236,17.909399999999998,14.484166626930238Q18.125,14.118666626930237,18.125,13.151666626930236L18.125,6.848326626930237Q18.125,5.881396626930237,17.909399999999998,5.5158666269302365Q17.6955,5.153056626930237,16.8455,4.672546626930236L16.8453,4.672436626930237L11.26982,1.5207686269302367Q10.42231,1.0416666269302368,10,1.0416666269302368Q9.57769,1.0416666269302368,8.73019,1.5207606269302367ZM3.167282,6.150806626930237Q3.211153,6.076406626930237,3.76981,5.760616626930237L9.34531,2.608938626930237Q9.90655,2.291666626930237,10,2.291666626930237Q10.09345,2.291666626930237,10.65468,2.6089316269302367L16.2302,5.760616626930237L16.2304,5.7607066269302365Q16.788899999999998,6.076436626930237,16.832700000000003,6.150806626930237Q16.875,6.222506626930237,16.875,6.848326626930237L16.875,13.151666626930236Q16.875,13.777466626930236,16.832700000000003,13.849166626930236Q16.788899999999998,13.923566626930237,16.2304,14.239266626930236L16.2301,14.239466626930238L10.65469,17.391066626930236L10.65452,17.391166626930236Q10.09339,17.708366626930236,10,17.708366626930236Q9.90661,17.708366626930236,9.34548,17.391166626930236L9.345279999999999,17.391066626930236L3.76981,14.239366626930236Q3.211141,13.923566626930237,3.167261,13.849166626930236Q3.125,13.777466626930236,3.125,13.151666626930236L3.125,6.848326626930237Q3.125,6.222506626930237,3.167282,6.150806626930237Z" fill-rule="evenodd" fill="#000000" fill-opacity="1" style="mix-blend-mode:passthrough"/></g><g><path d="M7.380864492279053,3.00912225881958L9.352413492279053,4.0758162588195805L9.352673492279052,4.07595825881958Q9.905363492279053,4.37498325881958,10.000003492279053,4.37498325881958Q10.094633492279053,4.37498325881958,10.647323492279053,4.07595925881958L10.647593492279054,4.07581325881958L12.619253492279054,3.0090572588195803Q12.758433492279053,2.93375825881958,12.916663492279053,2.93375825881958Q12.978223492279053,2.93375825881958,13.038593492279052,2.94576725881958Q13.098973492279054,2.95777625881958,13.155843492279054,2.9813332588195802Q13.212713492279054,3.00489025881958,13.263893492279053,3.03909025881958Q13.315083492279053,3.07328925881958,13.358613492279053,3.11681625881958Q13.402133492279052,3.1603442588195803,13.436333492279052,3.2115272588195802Q13.470533492279053,3.26271025881958,13.494093492279053,3.31958125881958Q13.517643492279053,3.37645225881958,13.529653492279053,3.43682725881958Q13.541663492279053,3.49720115881958,13.541663492279053,3.55875825881958Q13.541663492279053,3.64324035881958,13.519233492279053,3.7246902588195803Q13.496803492279053,3.80614125881958,13.453563492279052,3.8787132588195803Q13.410313492279052,3.95128525881958,13.349343492279052,4.00977125881958Q13.288383492279053,4.06825725881958,13.214083492279052,4.10845925881958L13.213703492279052,4.10866225881958L11.242403492279053,5.17521825881958L11.242133492279052,5.17536825881958Q10.812593492279053,5.40775825881958,10.638513492279053,5.48168825881958Q10.301043492279053,5.62498825881958,10.000003492279053,5.62498825881958Q9.698953492279053,5.62498825881958,9.361483492279053,5.48168825881958Q9.187403492279053,5.40775825881958,8.757863492279053,5.17536825881958L8.757583492279053,5.17521825881958L6.786040492279053,4.10852325881958L6.785921492279053,4.10845925881958Q6.711617492279053,4.06825725881958,6.650653492279052,4.00977125881958Q6.589689492279053,3.95128525881958,6.546440492279053,3.8787132588195803Q6.5031924922790525,3.80614025881958,6.4807624922790525,3.7246902588195803Q6.458333492279053,3.64324025881958,6.458333492279053,3.55875825881958Q6.458333492279053,3.49720115881958,6.470342492279053,3.43682725881958Q6.482351492279053,3.37645225881958,6.505908492279053,3.31958125881958Q6.529465492279053,3.26271025881958,6.5636654922790525,3.2115272588195802Q6.597864492279053,3.1603442588195803,6.641391492279053,3.11681625881958Q6.684919492279053,3.07328925881958,6.736102492279053,3.03909025881958Q6.787285492279053,3.00489025881958,6.844156492279053,2.9813332588195802Q6.901027492279053,2.95777625881958,6.961402492279053,2.94576725881958Q7.021776392279053,2.93375825881958,7.083333492279053,2.93375825881958Q7.241571492279053,2.93375825881958,7.380745492279052,3.0090572588195803L7.380864492279053,3.00912225881958Z" fill-rule="evenodd" fill="#000000" fill-opacity="1" style="mix-blend-mode:passthrough"/></g><g><path d="M3.2151307461395264,5.284202492279053L9.999996746139526,8.968303492279052L16.784766746139525,5.284278492279053L16.785066746139528,5.2840804922790525Q16.924566746139526,5.208333492279053,17.083366746139525,5.208333492279053Q17.144866746139527,5.208333492279053,17.20526674613953,5.220342492279053Q17.265666746139527,5.232351492279053,17.322466746139526,5.255908492279053Q17.379366746139524,5.279465492279053,17.430566746139526,5.3136654922790525Q17.481766746139527,5.347864492279053,17.525266746139526,5.391391492279053Q17.568766746139527,5.434919492279053,17.602966746139526,5.486102492279053Q17.637166746139528,5.537285492279053,17.660766746139526,5.594156492279053Q17.684266746139528,5.651027492279053,17.696366746139525,5.711402492279053Q17.708366746139525,5.771776392279053,17.708366746139525,5.833333492279053Q17.708366746139525,5.917695992279053,17.685966746139528,5.999039492279053Q17.663566746139526,6.080382492279052,17.620466746139527,6.152885492279053Q17.577366746139525,6.225387492279053,17.516566746139524,6.283858492279053Q17.455666746139528,6.342330492279053,17.381566746139526,6.382586492279053L17.381166746139527,6.382784492279053L10.624996746139526,10.051323492279053L10.624996746139526,18.333333492279053Q10.624996746139526,18.39493349227905,10.612986746139526,18.455233492279053Q10.600976746139526,18.51563349227905,10.577426746139526,18.572533492279053Q10.553866746139526,18.629333492279052,10.519666746139526,18.680533492279054Q10.485466746139526,18.731733492279055,10.441936746139525,18.775233492279053Q10.398416746139526,18.818833492279055,10.347226746139526,18.853033492279053Q10.296046746139528,18.88723349227905,10.239176746139528,18.910733492279054Q10.182306746139528,18.934333492279052,10.121926746139525,18.946333492279052Q10.061556746139527,18.958333492279053,9.999996746139526,18.958333492279053Q9.938446746139526,18.958333492279053,9.878066746139528,18.946333492279052Q9.817696746139527,18.934333492279052,9.760826746139525,18.910733492279054Q9.703946746139525,18.88723349227905,9.652766746139527,18.853033492279053Q9.601586746139526,18.818833492279055,9.558056746139528,18.775233492279053Q9.514526746139527,18.731733492279055,9.480326746139525,18.680533492279054Q9.446126746139527,18.629333492279052,9.422576746139526,18.572533492279053Q9.399016746139527,18.51563349227905,9.387006746139527,18.455233492279053Q9.374996746139526,18.39493349227905,9.374996746139526,18.333333492279053L9.374996746139526,10.051323492279053L2.6186547461395264,6.382709492279052L2.6184287461395264,6.382586492279053Q2.5442907461395263,6.342330492279053,2.4834787461395265,6.283858492279053Q2.4226667461395266,6.225387492279053,2.3795337461395265,6.152884492279052Q2.3364007461395264,6.080382492279052,2.3140337461395264,5.999039492279053Q2.2916667461395264,5.917695992279053,2.2916667461395264,5.833333492279053Q2.2916667461395264,5.771776392279053,2.3036757461395263,5.711402492279053Q2.3156847461395262,5.651027492279053,2.3392417461395265,5.594156492279053Q2.3627987461395263,5.537285492279053,2.396998746139526,5.486102492279053Q2.431197746139526,5.434919492279053,2.4747247461395263,5.391391492279053Q2.5182527461395265,5.347864492279053,2.5694357461395265,5.3136654922790525Q2.6206187461395265,5.279465492279053,2.677489746139526,5.255908492279053Q2.7343607461395263,5.232351492279053,2.7947357461395264,5.220342492279053Q2.8551096461395264,5.208333492279053,2.9166667461395264,5.208333492279053Q3.0754047461395264,5.208333492279053,3.2149047461395264,5.2840804922790525L3.2151307461395264,5.284202492279053Z" fill-rule="evenodd" fill="#000000" fill-opacity="1" style="mix-blend-mode:passthrough"/></g><g><path d="M2.796511,9.449813L5.20838,10.74848L5.20878,10.748693Q5.63019,10.975651,5.785299999999999,11.081949999999999Q6.09436,11.29375,6.25098,11.56663Q6.40369,11.83278,6.43992,12.21012Q6.45833,12.401959999999999,6.45833,12.90417L6.45833,15.83333Q6.45833,15.89489,6.44632,15.955259999999999Q6.43431,16.01564,6.41076,16.07251Q6.3872,16.12938,6.353,16.18056Q6.3187999999999995,16.231749999999998,6.27528,16.27527Q6.23175,16.3188,6.18056,16.353Q6.129379999999999,16.3872,6.072509999999999,16.41076Q6.015639999999999,16.43431,5.95526,16.44632Q5.89489,16.45833,5.83333,16.45833Q5.77178,16.45833,5.711399999999999,16.44632Q5.65103,16.43431,5.5941600000000005,16.41076Q5.53728,16.3872,5.4861,16.353Q5.43492,16.3188,5.3913899999999995,16.27527Q5.34786,16.231749999999998,5.3136600000000005,16.18056Q5.27947,16.12938,5.25591,16.07251Q5.23235,16.01564,5.22034,15.955259999999999Q5.20833,15.89489,5.20833,15.83333L5.20833,12.90417Q5.20833,12.26115,5.16677,12.18871Q5.13114,12.12664,4.61606,11.84923L4.61567,11.84902L2.203898,10.550408000000001L2.203693,10.550297Q2.129168,10.51017,2.068,10.451665Q2.006833,10.393161,1.963429,10.320494Q1.9200249999999999,10.247828,1.897513,10.166235Q1.875,10.084642,1.875,10Q1.875,9.9384429,1.887009,9.878069Q1.8990179999999999,9.817694,1.9225750000000001,9.760823Q1.946132,9.703952,1.980332,9.652769Q2.014531,9.601586,2.058058,9.558058Q2.101586,9.514531,2.152769,9.480332Q2.203952,9.446132,2.260823,9.422575Q2.317694,9.399018,2.378069,9.387009Q2.4384429,9.375,2.5,9.375Q2.6575699999999998,9.375,2.796307,9.449702L2.796511,9.449813Z" fill-rule="evenodd" fill="#000000" fill-opacity="1" style="mix-blend-mode:passthrough"/></g><g><path d="M17.796306984558107,10.550296Q17.870836984558107,10.510168,17.931996984558104,10.451664Q17.993166984558105,10.393159,18.036566984558107,10.320493Q18.079976984558105,10.247827,18.102486984558105,10.166234Q18.124996984558106,10.0846416,18.124996984558106,10Q18.124996984558106,9.9384429,18.112986984558106,9.878069Q18.100976984558105,9.817694,18.077426984558105,9.760823Q18.053866984558105,9.703952,18.019666984558107,9.652769Q17.985466984558105,9.601586,17.941936984558104,9.558058Q17.898416984558104,9.514531,17.847226984558105,9.480332Q17.796046984558107,9.446132,17.739176984558107,9.422575Q17.682306984558107,9.399018,17.621926984558105,9.387009Q17.561556984558106,9.375,17.499996984558106,9.375Q17.342426984558106,9.375,17.203686984558104,9.449704L14.791638984558105,10.748481L14.791066984558105,10.748789Q14.369754984558105,10.975698,14.214661484558105,11.08198Q13.905658984558105,11.29374,13.748930984558106,11.56671Q13.596290984558106,11.83283,13.560077984558106,12.210139999999999Q13.541666984558105,12.40197,13.541666984558105,12.90417L13.541666984558105,15.83333Q13.541666984558105,15.89489,13.553675984558106,15.955259999999999Q13.565684984558105,16.01564,13.589241984558106,16.07251Q13.612798984558106,16.12938,13.646998984558106,16.18056Q13.681197984558105,16.231749999999998,13.724724984558106,16.27527Q13.768252984558105,16.3188,13.819435984558105,16.353Q13.870618984558105,16.3872,13.927489984558106,16.41076Q13.984360984558105,16.43431,14.044735984558105,16.44632Q14.105109884558106,16.45833,14.166666984558105,16.45833Q14.228224084558105,16.45833,14.288597984558105,16.44632Q14.348972984558106,16.43431,14.405843984558105,16.41076Q14.462714984558106,16.3872,14.513897984558106,16.353Q14.565080984558106,16.3188,14.608608984558105,16.27527Q14.652135984558106,16.231749999999998,14.686334984558105,16.18056Q14.720534984558105,16.12938,14.744091984558105,16.07251Q14.767648984558106,16.01564,14.779657984558105,15.955259999999999Q14.791666984558105,15.89489,14.791666984558105,15.83333L14.791666984558105,12.90417Q14.791666984558105,12.261099999999999,14.833234984558105,12.18863Q14.868798984558106,12.12669,15.383786984558105,11.84933L15.384356984558105,11.84902L17.795886984558106,10.550521L17.796306984558107,10.550296L17.796306984558107,10.550296Z" fill-rule="evenodd" fill="#000000" fill-opacity="1" style="mix-blend-mode:passthrough"/></g></g></svg>