<svg xmlns="http://www.w3.org/2000/svg" xmlns:xlink="http://www.w3.org/1999/xlink" fill="none" version="1.1" width="20" height="20" viewBox="0 0 20 20"><defs><clipPath id="master_svg0_4550_55877"><rect x="0" y="0" width="20" height="20" rx="0"/></clipPath></defs><g clip-path="url(#master_svg0_4550_55877)"><g><path d="M16.109,4.1823999999999995C16.1038,4.1725,16.095,4.16475,16.0844,4.16052C14.8525,3.613918,13.5525,3.224145,12.2169,3.000959399C12.1921,2.99648463,12.167,3.0079483,12.1548,3.029397C11.9778,3.340114,11.8171,3.6592700000000002,11.6733,3.985649C10.2337,3.7743,8.76928,3.7743,7.32963,3.985649C7.18492,3.658441,7.02165,3.3392049999999998,6.84057,3.0293971C6.82786,3.00846185,6.8032,2.99718081,6.7784,3.000959518C5.4427,3.223676,4.14263,3.6134779999999997,2.91092,4.16056C2.90037,4.16488,2.89147,4.17226,2.88545,4.18168C0.422262,7.73913,-0.252499,11.2091,0.078516,14.6361C0.0803975,14.6531,0.0893175,14.6686,0.103235,14.6791C1.53753,15.7061,3.1418,16.490099999999998,4.8476,16.997500000000002C4.8722,17.0046,4.89879,16.9962,4.91426,16.976399999999998C5.28063,16.494300000000003,5.60526,15.9838,5.88485,15.4501C5.90114,15.419,5.88573,15.3812,5.85192,15.3692C5.34,15.1797,4.84441,14.9514,4.36978,14.6863C4.33243,14.665,4.3293,14.6139,4.36381,14.5886C4.46368,14.5164,4.56182,14.4421,4.65815,14.3655C4.67538,14.3518,4.69917,14.3487,4.71954,14.3575C7.82899,15.73,11.1954,15.73,14.268,14.3575C14.2885,14.3482,14.3127,14.351,14.3302,14.3648C14.4267,14.4418,14.525,14.5164,14.6253,14.5886C14.66,14.6137,14.6572,14.6648,14.6201,14.6863C14.1465,14.9536,13.6505,15.1818,13.1372,15.3685C13.1034,15.3809,13.0884,15.419,13.1049,15.4501C13.3892,15.9808,13.7133,16.4907,14.0747,16.9755C14.0898,16.9959,14.1166,17.0047,14.1414,16.9974C15.8503,16.4917,17.4573,15.7077,18.8934,14.6791C18.9076,14.6691,18.9166,14.6537,18.9181,14.6368C19.3144,10.67485,18.2547,7.23331,16.109,4.1823999999999995ZM6.34922,12.54942C5.41304,12.54942,4.64167,11.71857,4.64167,10.6982C4.64167,9.67782,5.39808,8.846910000000001,6.34922,8.846910000000001C7.30778,8.846910000000001,8.07169,9.68504,8.05673,10.698129999999999C8.05673,11.71857,7.30029,12.54942,6.34922,12.54942ZM12.6625,12.54942C11.7264,12.54942,10.955,11.71857,10.955,10.6982C10.955,9.67782,11.7114,8.846910000000001,12.6625,8.846910000000001C13.6212,8.846910000000001,14.385,9.68504,14.3701,10.698129999999999C14.3701,11.71857,13.6212,12.54942,12.6625,12.54942Z" fill="#6E75F9" fill-opacity="1" style="mix-blend-mode:passthrough"/></g></g></svg>