<svg xmlns="http://www.w3.org/2000/svg" xmlns:xlink="http://www.w3.org/1999/xlink" fill="none" version="1.1" width="16" height="16" viewBox="0 0 16 16"><defs><clipPath id="master_svg0_4539_58656"><rect x="0" y="0" width="16" height="16" rx="0"/></clipPath></defs><g clip-path="url(#master_svg0_4539_58656)"><g><path d="M3.56209,14.4999Q4.47903,14.4999,4.81593,14.3604Q5.15274,14.2209,5.80072,13.573L5.80125,13.5725L13.5725,5.801270000000001L13.5726,5.80122Q14.1757,5.19801,14.3093,4.92848Q14.7128,4.11439,14.3094,3.3003400000000003Q14.1757,3.0307399999999998,13.5725,2.42751L13.5722,2.427162Q12.9692,1.824192,12.6996,1.690631Q11.88561,1.2872759999999999,11.07158,1.690622Q10.80196,1.824234,10.19874,2.427509L2.427494,10.19871Q1.779166,10.84697,1.639561,11.18397Q1.5,11.52087,1.5,12.4379L1.5,13.9999Q1.5,14.0492,1.509607,14.0975Q1.519215,14.1458,1.53806,14.1913Q1.5569060000000001,14.2368,1.584265,14.2777Q1.611625,14.3187,1.646447,14.3535Q1.681269,14.3883,1.722215,14.4157Q1.763161,14.443,1.8086579999999999,14.4619Q1.854155,14.4807,1.9024549,14.4903Q1.9507543,14.4999,2,14.4999L3.56209,14.4999ZM5.09365,12.8659Q4.58634,13.3731,4.43333,13.4365Q4.28017,13.4999,3.56209,13.4999L2.5,13.4999L2.5,12.4379Q2.5,11.7198,2.5634259999999998,11.56669Q2.6269,11.41347,3.1346,10.90582L10.90588,3.1345799999999997Q11.39304,2.647374,11.51556,2.586658Q11.88561,2.403303,12.2556,2.586649Q12.3781,2.647353,12.8651,3.1343L12.8654,3.1345799999999997Q13.3526,3.6218500000000002,13.4134,3.74438Q13.5967,4.114380000000001,13.4134,4.48431Q13.3526,4.60691,12.8654,5.0941399999999994L12.8654,5.0941600000000005L5.09418,12.8654L5.09365,12.8659Z" fill-rule="evenodd" fill="#A5ADC6" fill-opacity="1" style="mix-blend-mode:passthrough"/></g><g><path d="M8,13.5L12,13.5Q12.04925,13.5,12.09755,13.509607Q12.14584,13.519214999999999,12.19134,13.53806Q12.23684,13.556906,12.27778,13.584265Q12.31873,13.611625,12.35355,13.646447Q12.38837,13.681269,12.41573,13.722215Q12.44309,13.763161,12.46194,13.808658Q12.48078,13.854155,12.49039,13.9024549Q12.5,13.9507543,12.5,14Q12.5,14.0492457,12.49039,14.0975451Q12.48078,14.145845,12.46194,14.191342Q12.44309,14.236839,12.41573,14.277785Q12.38837,14.318731,12.35355,14.353553Q12.31873,14.388375,12.27778,14.415735Q12.23684,14.443094,12.19134,14.46194Q12.14584,14.480785000000001,12.09755,14.490393Q12.04925,14.5,12,14.5L8,14.5Q7.9507543,14.5,7.9024549,14.490393Q7.854155,14.480785000000001,7.808658,14.46194Q7.763161,14.443094,7.722215,14.415735Q7.681269,14.388375,7.646447,14.353553Q7.611625,14.318731,7.584265,14.277785Q7.556906,14.236839,7.53806,14.191342Q7.519215,14.145845,7.509607,14.0975451Q7.5,14.0492457,7.5,14Q7.5,13.9507543,7.509607,13.9024549Q7.519215,13.854155,7.53806,13.808658Q7.556906,13.763161,7.584265,13.722215Q7.611625,13.681269,7.646447,13.646447Q7.681269,13.611625,7.722215,13.584265Q7.763161,13.556906,7.808658,13.53806Q7.854155,13.519214999999999,7.9024549,13.509607Q7.9507543,13.5,8,13.5Z" fill-rule="evenodd" fill="#A5ADC6" fill-opacity="1" style="mix-blend-mode:passthrough"/></g><g><path d="M10.0176755,3.312521625L12.6842825,5.979125625Q12.7546125,6.049455625,12.7926725,6.141345625Q12.8307325,6.233225625,12.8307325,6.332685625Q12.8307325,6.381925625,12.8211225,6.430225625Q12.8115125,6.478525625,12.7926725,6.524025625Q12.7738225,6.569525625,12.7464625,6.610465625Q12.7191025,6.651415625,12.6842825,6.686235625Q12.6494625,6.721055625,12.6085125,6.748415625Q12.5675725,6.775775625,12.5220725,6.794625625Q12.4765725,6.813465625,12.4282725,6.8230756249999995Q12.379972500000001,6.832685625,12.3307325,6.832685625Q12.2312725,6.832685625,12.1393925,6.794625625Q12.0475025,6.756565625,11.9771725,6.686235625L9.3105685,4.019628625L9.3105095,4.019568625Q9.2401825,3.949242625,9.2021225,3.857357625Q9.1640625,3.765471825,9.1640625,3.666015625Q9.1640625,3.616769925,9.1736695,3.568470525Q9.183277499999999,3.520170625,9.2021225,3.474673625Q9.2209685,3.429176625,9.2483275,3.388230625Q9.2756875,3.347284625,9.3105095,3.312462625Q9.3453315,3.277640625,9.3862775,3.250280625Q9.4272235,3.222921625,9.4727205,3.2040756249999998Q9.5182175,3.185230625,9.5665174,3.175622625Q9.6148168,3.166015625,9.6640625,3.166015625Q9.7635187,3.166015625,9.8554045,3.2040756249999998Q9.9472895,3.242135625,10.0176155,3.312462625L10.0176755,3.312521625Z" fill-rule="evenodd" fill="#A5ADC6" fill-opacity="1" style="mix-blend-mode:passthrough"/></g></g></svg>