<svg width="48" height="48" viewBox="57 49 48 48" fill="none" xmlns="http://www.w3.org/2000/svg">
  <path
    d="M86.2477 78.2078H86.7477H93.6163C97.6786 78.2078 100.97 81.4929 100.983 85.5508L100.983 85.5524L100.983 85.5764C100.983 89.6464 97.6861 92.9438 93.6163 92.9449L86.2477 78.2078ZM86.2477 78.2078V78.7078M86.2477 78.2078V78.7078M86.2477 78.7078V85.5764C86.2477 89.6464 89.5445 92.9438 93.6143 92.9449L86.2477 78.7078ZM104.496 60.3869L104.498 60.6984V85.5784C104.498 91.588 99.6196 96.4784 93.6136 96.5C93.6133 96.5 93.6129 96.5 93.6125 96.5L68.4196 96.5C62.412 96.5 57.5195 91.5857 57.5 85.5776V60.3846C57.5215 54.3774 62.3751 49.5 68.4216 49.5H93.6154C99.5943 49.5215 104.458 54.4074 104.496 60.3869ZM100.983 60.3977L100.983 60.3961C100.97 56.3385 97.6869 53.0531 93.6163 53.0531C89.5456 53.0531 86.2477 56.3509 86.2477 60.4216V65.0106V65.0126V67.2882V67.7882H86.7477H93.6163C97.6785 67.7882 100.97 64.5052 100.983 60.4452V60.4436L100.983 60.3977ZM100.983 69.5478V68.5384L100.18 69.15C98.3452 70.5475 96.0575 71.3792 93.5784 71.3792H87.2477V71.3761L86.7467 71.3772L85.8 71.3792L85.7989 71.3792L85.8 72.3792L85.8011 72.3792L86.2477 72.3792V74.1547V74.6547H86.7477H93.5784C96.0575 74.6547 98.3452 75.4865 100.18 76.8839L100.983 77.4956V76.4862V69.5478ZM68.9216 53.0531V53.0152H68.4216C64.3509 53.0152 61.0531 56.313 61.0531 60.3837C61.0531 64.4562 64.3906 67.7523 68.4216 67.7523H75.2902H75.7902V67.2523V60.3837C75.7902 56.5739 72.9033 53.4434 69.1962 53.0558L69.1703 53.0531H69.1442H68.9216ZM61.8181 69.1141L61.0152 68.5024V69.5118V76.4383V77.4456L61.8175 76.8365C63.6477 75.4472 65.9315 74.6208 68.4196 74.6208H75.2882H75.7882V74.1208V71.8433V71.3433H75.2882H68.4196C65.9405 71.3433 63.6528 70.5115 61.8181 69.1141ZM75.8261 78.7098V78.2098H75.3261H68.4576C64.3869 78.2098 61.089 81.5077 61.089 85.5784C61.089 89.6491 64.3869 92.9469 68.4576 92.9469C72.5283 92.9469 75.8261 89.6491 75.8261 85.5784V78.7098ZM77.177 92.1432L76.5703 92.9449H77.5757H84.4582H85.4614L84.8575 92.1439C83.477 90.3128 82.6567 88.0403 82.6567 85.5764V78.7078V78.2078H82.1567H79.8792H79.3792V78.7078V85.5764C79.3792 88.0407 78.5607 90.3148 77.177 92.1432ZM79.3413 74.1567V74.6567H79.8413H82.1567H82.6567V74.1567V71.8792V71.3792H82.1567H79.8413H79.3413V71.8792V74.1567ZM82.1567 67.7902H82.6567V67.2902V60.4216C82.6567 57.9576 83.4771 55.6832 84.8573 53.8543L85.462 53.0531H84.4582H77.5757H76.5717L77.1767 53.8543C78.559 55.6853 79.3792 57.9577 79.3792 60.4216V67.2902V67.7902H79.8792H82.1567Z"
    stroke="url(#paint1_linear_143_58)" />
  <defs>
    <linearGradient id="paint1_linear_143_58" x1="101.68" y1="52.3172" x2="60.3445" y2="93.6512"
      gradientUnits="userSpaceOnUse">
      <stop stop-color="#B94DFF" />
      <stop offset="0.700148" stop-color="#7C4DFF" />
    </linearGradient>
  </defs>
</svg>