<svg width="48" height="48" viewBox="57 49 48 48" fill="none" xmlns="http://www.w3.org/2000/svg">
  <mask id="path-2-inside-1_143_66" fill="white">
    <path
      d="M57.0258 61.0749C57.0278 61.1228 57.0338 61.1707 57.0377 61.2186C57.0497 61.3942 57.0657 61.5699 57.0857 61.7436C57.0896 61.7815 57.0956 61.8194 57.0996 61.8574C57.1256 62.055 57.1535 62.2506 57.1895 62.4462C57.1895 62.4562 57.1934 62.4662 57.1954 62.4762C57.6965 65.2209 59.1776 67.6243 61.2676 69.3111C61.2696 69.3131 61.2736 69.3151 61.2756 69.3171C61.4393 69.4488 61.609 69.5766 61.7827 69.7023C63.6571 71.0477 65.9507 71.8442 68.4299 71.8442H79.8899V60.4221C79.8899 58.0766 79.1793 55.8948 77.9596 54.0803C76.1551 51.3914 73.2347 49.511 69.8552 49.0918C69.8252 49.0878 69.7973 49.0838 69.7673 49.0798C69.5857 49.0579 69.4021 49.0419 69.2184 49.0299C69.1745 49.0279 69.1306 49.022 69.0866 49.02C68.8691 49.008 68.6495 49 68.4299 49C62.1619 49 57.1216 54.0124 57.0138 60.2165C57.0138 60.2844 57.0078 60.3522 57.0078 60.4201C57.0078 60.4221 57.0078 60.4241 57.0078 60.4261C57.0078 60.6417 57.0158 60.8573 57.0278 61.0709L57.0258 61.0749Z" />
    <path
      d="M104.986 84.9291C104.984 84.8812 104.978 84.8333 104.974 84.7834C104.962 84.6078 104.946 84.4321 104.926 84.2584C104.922 84.2205 104.916 84.1826 104.912 84.1446C104.886 83.947 104.858 83.7514 104.822 83.5558C104.822 83.5458 104.818 83.5358 104.816 83.5258C104.315 80.7811 102.832 78.3777 100.744 76.6909C100.742 76.6909 100.74 76.6869 100.736 76.6849C100.57 76.5512 100.401 76.4234 100.229 76.2997C98.3547 74.9543 96.0611 74.1578 93.5819 74.1578H86.751V71.8801H93.5819C96.0611 71.8801 98.3547 71.0837 100.229 69.7383C100.401 69.6145 100.57 69.4867 100.734 69.355C100.738 69.353 100.74 69.351 100.744 69.347C102.832 67.6622 104.313 65.2568 104.814 62.5141C104.814 62.5041 104.818 62.4941 104.82 62.4822C104.856 62.2865 104.884 62.0909 104.91 61.8953C104.914 61.8574 104.92 61.8194 104.924 61.7815C104.944 61.6078 104.96 61.4322 104.972 61.2565C104.976 61.2086 104.98 61.1607 104.984 61.1108C104.996 60.8972 105.004 60.6816 105.004 60.466C105.004 60.464 105.004 60.462 105.004 60.458C105.004 54.1761 99.9397 49.0619 93.6917 49.002C93.6557 49.002 93.6178 49 93.5819 49C93.3623 49 93.1447 49.008 92.9291 49.02C92.8812 49.022 92.8353 49.0279 92.7874 49.0299C92.6097 49.0419 92.4341 49.0579 92.2584 49.0779C92.2205 49.0818 92.1826 49.0878 92.1446 49.0918C91.947 49.1178 91.7514 49.1457 91.5558 49.1817C91.5458 49.1817 91.5358 49.1856 91.5238 49.1876C88.7791 49.6887 86.3757 51.1718 84.6909 53.2598C84.6869 53.2638 84.6829 53.2698 84.6789 53.2738C84.5472 53.4375 84.4214 53.6052 84.2977 53.7768C82.9543 55.6493 82.1578 57.9429 82.1578 60.4201V74.1558H71.4343V74.1179H68.4221C66.1065 74.1179 63.9587 74.8045 62.1641 75.9803C59.4214 77.7768 57.509 80.7212 57.0898 84.1287C57.0858 84.1526 57.0838 84.1786 57.0799 84.2025C57.0579 84.3862 57.0419 84.5718 57.0299 84.7575C57.028 84.7994 57.022 84.8413 57.02 84.8852C57.008 85.1008 57 85.3164 57 85.534C57 85.536 57 85.538 57 85.54C57 91.8579 62.1242 97 68.4221 97C68.4281 97 68.4321 97 68.4381 97C68.6517 97 68.8653 96.992 69.0769 96.98C69.1228 96.978 69.1707 96.9721 69.2166 96.9701C69.3982 96.9581 69.5779 96.9421 69.7575 96.9202C69.7895 96.9162 69.8194 96.9122 69.8514 96.9082C73.2289 96.489 76.1473 94.6086 77.9518 91.9217C79.1715 90.1052 79.8821 87.9234 79.8821 85.5779V78.7091H82.1598V85.5779C82.1598 88.0551 82.9543 90.3487 84.2997 92.2232C84.4214 92.3928 84.5472 92.5605 84.677 92.7222C84.6809 92.7282 84.6869 92.7342 84.6909 92.7402C86.3757 94.8282 88.7791 96.3093 91.5218 96.8104C91.5338 96.8124 91.5478 96.8144 91.5598 96.8164C91.7514 96.8523 91.947 96.8802 92.1406 96.9042C92.1806 96.9102 92.2205 96.9142 92.2604 96.9202C92.4321 96.9401 92.6058 96.9561 92.7794 96.9681C92.8293 96.9721 92.8792 96.976 92.9291 96.98C93.1387 96.992 93.3503 97 93.5639 97C93.5699 97 93.5739 97 93.5799 97C94.3165 97 95.0351 96.9281 95.7318 96.7944C100.61 95.8602 104.395 91.8159 104.934 86.8095C104.978 86.4043 105.002 85.9951 105.002 85.5779C105.002 85.5759 105.002 85.5739 105.002 85.5699C105.002 85.3543 104.994 85.1387 104.982 84.9251L104.986 84.9291ZM86.755 60.4221C86.755 56.7452 89.6394 53.7469 93.2705 53.5633C93.3883 53.5573 93.506 53.5553 93.6238 53.5553C93.7416 53.5553 93.8593 53.5593 93.9771 53.5633C97.6082 53.7469 100.493 56.7472 100.493 60.4221C100.493 64.0971 97.4185 67.2909 93.6238 67.2909H86.755V60.4221ZM75.3329 85.5799C75.3329 89.3666 72.2528 92.4487 68.464 92.4487C64.6753 92.4487 61.7689 89.5363 61.6032 85.8953C61.5992 85.7915 61.5952 85.6857 61.5952 85.5799C61.5952 85.4741 61.5992 85.3703 61.6032 85.2645C61.7689 81.6235 64.7811 78.7111 68.464 78.7111H75.3329V85.5799ZM93.6238 92.4487C89.8291 92.4487 86.755 89.3746 86.755 85.5799V78.7111H93.6238C97.4185 78.7111 100.493 81.7852 100.493 85.5799C100.493 89.3746 97.4185 92.4487 93.6238 92.4487Z" />
  </mask>
  <path
    d="M57.0258 61.0749C57.0278 61.1228 57.0338 61.1707 57.0377 61.2186C57.0497 61.3942 57.0657 61.5699 57.0857 61.7436C57.0896 61.7815 57.0956 61.8194 57.0996 61.8574C57.1256 62.055 57.1535 62.2506 57.1895 62.4462C57.1895 62.4562 57.1934 62.4662 57.1954 62.4762C57.6965 65.2209 59.1776 67.6243 61.2676 69.3111C61.2696 69.3131 61.2736 69.3151 61.2756 69.3171C61.4393 69.4488 61.609 69.5766 61.7827 69.7023C63.6571 71.0477 65.9507 71.8442 68.4299 71.8442H79.8899V60.4221C79.8899 58.0766 79.1793 55.8948 77.9596 54.0803C76.1551 51.3914 73.2347 49.511 69.8552 49.0918C69.8252 49.0878 69.7973 49.0838 69.7673 49.0798C69.5857 49.0579 69.4021 49.0419 69.2184 49.0299C69.1745 49.0279 69.1306 49.022 69.0866 49.02C68.8691 49.008 68.6495 49 68.4299 49C62.1619 49 57.1216 54.0124 57.0138 60.2165C57.0138 60.2844 57.0078 60.3522 57.0078 60.4201C57.0078 60.4221 57.0078 60.4241 57.0078 60.4261C57.0078 60.6417 57.0158 60.8573 57.0278 61.0709L57.0258 61.0749Z"
    stroke="url(#paint1_linear_143_66)" stroke-width="2" mask="url(#path-2-inside-1_143_66)" />
  <path
    d="M104.986 84.9291C104.984 84.8812 104.978 84.8333 104.974 84.7834C104.962 84.6078 104.946 84.4321 104.926 84.2584C104.922 84.2205 104.916 84.1826 104.912 84.1446C104.886 83.947 104.858 83.7514 104.822 83.5558C104.822 83.5458 104.818 83.5358 104.816 83.5258C104.315 80.7811 102.832 78.3777 100.744 76.6909C100.742 76.6909 100.74 76.6869 100.736 76.6849C100.57 76.5512 100.401 76.4234 100.229 76.2997C98.3547 74.9543 96.0611 74.1578 93.5819 74.1578H86.751V71.8801H93.5819C96.0611 71.8801 98.3547 71.0837 100.229 69.7383C100.401 69.6145 100.57 69.4867 100.734 69.355C100.738 69.353 100.74 69.351 100.744 69.347C102.832 67.6622 104.313 65.2568 104.814 62.5141C104.814 62.5041 104.818 62.4941 104.82 62.4822C104.856 62.2865 104.884 62.0909 104.91 61.8953C104.914 61.8574 104.92 61.8194 104.924 61.7815C104.944 61.6078 104.96 61.4322 104.972 61.2565C104.976 61.2086 104.98 61.1607 104.984 61.1108C104.996 60.8972 105.004 60.6816 105.004 60.466C105.004 60.464 105.004 60.462 105.004 60.458C105.004 54.1761 99.9397 49.0619 93.6917 49.002C93.6557 49.002 93.6178 49 93.5819 49C93.3623 49 93.1447 49.008 92.9291 49.02C92.8812 49.022 92.8353 49.0279 92.7874 49.0299C92.6097 49.0419 92.4341 49.0579 92.2584 49.0779C92.2205 49.0818 92.1826 49.0878 92.1446 49.0918C91.947 49.1178 91.7514 49.1457 91.5558 49.1817C91.5458 49.1817 91.5358 49.1856 91.5238 49.1876C88.7791 49.6887 86.3757 51.1718 84.6909 53.2598C84.6869 53.2638 84.6829 53.2698 84.6789 53.2738C84.5472 53.4375 84.4214 53.6052 84.2977 53.7768C82.9543 55.6493 82.1578 57.9429 82.1578 60.4201V74.1558H71.4343V74.1179H68.4221C66.1065 74.1179 63.9587 74.8045 62.1641 75.9803C59.4214 77.7768 57.509 80.7212 57.0898 84.1287C57.0858 84.1526 57.0838 84.1786 57.0799 84.2025C57.0579 84.3862 57.0419 84.5718 57.0299 84.7575C57.028 84.7994 57.022 84.8413 57.02 84.8852C57.008 85.1008 57 85.3164 57 85.534C57 85.536 57 85.538 57 85.54C57 91.8579 62.1242 97 68.4221 97C68.4281 97 68.4321 97 68.4381 97C68.6517 97 68.8653 96.992 69.0769 96.98C69.1228 96.978 69.1707 96.9721 69.2166 96.9701C69.3982 96.9581 69.5779 96.9421 69.7575 96.9202C69.7895 96.9162 69.8194 96.9122 69.8514 96.9082C73.2289 96.489 76.1473 94.6086 77.9518 91.9217C79.1715 90.1052 79.8821 87.9234 79.8821 85.5779V78.7091H82.1598V85.5779C82.1598 88.0551 82.9543 90.3487 84.2997 92.2232C84.4214 92.3928 84.5472 92.5605 84.677 92.7222C84.6809 92.7282 84.6869 92.7342 84.6909 92.7402C86.3757 94.8282 88.7791 96.3093 91.5218 96.8104C91.5338 96.8124 91.5478 96.8144 91.5598 96.8164C91.7514 96.8523 91.947 96.8802 92.1406 96.9042C92.1806 96.9102 92.2205 96.9142 92.2604 96.9202C92.4321 96.9401 92.6058 96.9561 92.7794 96.9681C92.8293 96.9721 92.8792 96.976 92.9291 96.98C93.1387 96.992 93.3503 97 93.5639 97C93.5699 97 93.5739 97 93.5799 97C94.3165 97 95.0351 96.9281 95.7318 96.7944C100.61 95.8602 104.395 91.8159 104.934 86.8095C104.978 86.4043 105.002 85.9951 105.002 85.5779C105.002 85.5759 105.002 85.5739 105.002 85.5699C105.002 85.3543 104.994 85.1387 104.982 84.9251L104.986 84.9291ZM86.755 60.4221C86.755 56.7452 89.6394 53.7469 93.2705 53.5633C93.3883 53.5573 93.506 53.5553 93.6238 53.5553C93.7416 53.5553 93.8593 53.5593 93.9771 53.5633C97.6082 53.7469 100.493 56.7472 100.493 60.4221C100.493 64.0971 97.4185 67.2909 93.6238 67.2909H86.755V60.4221ZM75.3329 85.5799C75.3329 89.3666 72.2528 92.4487 68.464 92.4487C64.6753 92.4487 61.7689 89.5363 61.6032 85.8953C61.5992 85.7915 61.5952 85.6857 61.5952 85.5799C61.5952 85.4741 61.5992 85.3703 61.6032 85.2645C61.7689 81.6235 64.7811 78.7111 68.464 78.7111H75.3329V85.5799ZM93.6238 92.4487C89.8291 92.4487 86.755 89.3746 86.755 85.5799V78.7111H93.6238C97.4185 78.7111 100.493 81.7852 100.493 85.5799C100.493 89.3746 97.4185 92.4487 93.6238 92.4487Z"
    stroke="url(#paint2_linear_143_66)" stroke-width="2" mask="url(#path-2-inside-1_143_66)" />
  <defs>
    <linearGradient id="paint1_linear_143_66" x1="101.686" y1="52.3172" x2="60.3501" y2="93.6564"
      gradientUnits="userSpaceOnUse">
      <stop stop-color="#B94DFF" />
      <stop offset="0.700148" stop-color="#7C4DFF" />
    </linearGradient>
    <linearGradient id="paint2_linear_143_66" x1="101.686" y1="52.3172" x2="60.3501" y2="93.6564"
      gradientUnits="userSpaceOnUse">
      <stop stop-color="#B94DFF" />
      <stop offset="0.700148" stop-color="#7C4DFF" />
    </linearGradient>
  </defs>
</svg>