<svg xmlns="http://www.w3.org/2000/svg" xmlns:xlink="http://www.w3.org/1999/xlink" fill="none" version="1.1" width="75" height="20" viewBox="0 0 75 20"><defs><mask id="master_svg0_385_02993" style="mask-type:alpha" maskUnits="userSpaceOnUse"><g><rect x="0" y="0" width="75" height="20" rx="0" fill="#FFFFFF" fill-opacity="1"/></g></mask></defs><g mask="url(#master_svg0_385_02993)"><g><g><path d="M62.427989237060544,20L60.79999923706055,17.172L60.79999923706055,8.828L62.427989237060544,6L73.28399923706054,6L74.91199923706054,8.828L74.91199923706054,14.316L63.599999237060544,14.316L63.599999237060544,16.024L64.29866923706055,17.256L74.07199923706055,17.256L74.07199923706055,20L62.427989237060544,20ZM72.11199923706054,9.975999999999999L71.41329923706054,8.744L64.29866923706055,8.744L63.599999237060544,9.975999999999999L63.599999237060544,11.572L72.11199923706054,11.572L72.11199923706054,9.975999999999999Z" fill="#333333" fill-opacity="1"/></g><g><path d="M16.56132339691162,20L14.933333396911621,17.172L14.933333396911621,14.232L16.56132339691162,11.404L26.24533339691162,11.404L26.24533339691162,9.975999999999999L25.546633396911623,8.744L16.83999339691162,8.744L18.44000339691162,6L27.417333396911623,6L29.045333396911623,8.828L29.045333396911623,17.256L30.78133339691162,17.256L32.26663339691162,20L16.56132339691162,20ZM17.733333396911622,16.024L17.733333396911622,15.38L18.43200339691162,14.148L26.24533339691162,14.148L26.24533339691162,17.256L18.43200339691162,17.256L17.733333396911622,16.024Z" fill-rule="evenodd" fill="#333333" fill-opacity="1"/></g><g><path d="M49.46666717529297,20L58.986667175292965,20L58.986667175292965,17.256L55.626667175292965,17.256L55.626667175292965,0L52.82666717529297,4.93333L49.46666717529297,4.93333L49.46666717529297,7.67734L52.82666717529297,7.67734L52.82666717529297,17.256L49.46666717529297,17.256L49.46666717529297,20Z" fill="#333333" fill-opacity="1"/></g><g><path d="M33.06666564941406,17.17199997615814L33.06666564941406,8.827999976158143L34.69466564941406,5.999999976158142L44.37866564941406,5.999999976158142L44.37866564941406,0.3999999761581421L47.178665649414064,0.3999999761581421L47.178665649414064,19.999999976158144L34.69466564941406,19.999999976158144L33.06666564941406,17.17199997615814ZM35.86666564941406,16.023999976158144L35.86666564941406,9.975999976158143L36.56533564941406,8.743999976158142L44.37866564941406,8.743999976158142L44.37866564941406,17.255999976158144L36.56533564941406,17.255999976158144L35.86666564941406,16.023999976158144Z" fill-rule="evenodd" fill="#333333" fill-opacity="1"/></g><g><path d="M2,2.6000033015441892L4.856,2.6000033015441892L6.056,0.5333333015441895L3.2,0.5333333015441895L2,2.6000033015441892ZM5.6,2.6000033015441892L8.456,2.6000033015441892L9.656,0.5333333015441895L6.8,0.5333333015441895L5.6,2.6000033015441892ZM0,6.077333301544189L8.32266,6.077333301544189L8.32267,20.00003330154419L11.1227,20.00003330154419L11.1227,5.5333333015441895L12.3333,3.3333333015441893L19.9787,3.2773333015441897L21.5787,0.5333333015441895L10.7227,0.5333333015441895L9.12266,3.3333333015441893L1.6,3.3333333015441893L0,6.077333301544189Z" fill="#333333" fill-opacity="1"/></g></g></g></svg>