<svg width="191" height="22" viewBox="0 0 191 22" fill="none" xmlns="http://www.w3.org/2000/svg"
  class="h-6 text-brand dark:text-light">
  <path
    d="M.5 2.934h4.355v15.397H.5V2.934zm22.103 0v15.397h-3.586l-6.796-8.204v8.204H7.953V2.934h3.586l6.796 8.204V2.935h4.268zm8.482 15.705c-1.246 0-2.456-.154-3.629-.462-1.173-.308-2.126-.718-2.86-1.232l1.43-3.211c.69.455 1.489.821 2.398 1.1.909.279 1.803.418 2.683.418 1.672 0 2.508-.419 2.508-1.254 0-.44-.242-.763-.726-.968-.47-.22-1.232-.447-2.287-.682-1.159-.249-2.127-.513-2.904-.792a4.983 4.983 0 01-2.002-1.385c-.557-.63-.835-1.481-.835-2.552 0-.938.256-1.781.77-2.53.513-.762 1.275-1.363 2.287-1.803 1.027-.44 2.28-.66 3.761-.66 1.012 0 2.01.117 2.992.352.982.22 1.847.55 2.595.99L35.924 7.2c-1.466-.792-2.888-1.188-4.267-1.188-.865 0-1.495.132-1.891.396-.396.25-.594.58-.594.99 0 .41.235.719.704.924.47.205 1.224.418 2.265.638 1.174.25 2.141.52 2.904.814a4.792 4.792 0 012.001 1.364c.572.615.858 1.459.858 2.529 0 .924-.257 1.76-.77 2.507-.513.748-1.283 1.35-2.31 1.804-1.026.44-2.272.66-3.738.66zM42.978 6.388H38.25V2.934H52.04v3.454h-4.707V18.33h-4.355V6.388zm20.227 8.951h-6.51l-1.21 2.992h-4.443L57.84 2.934h4.289l6.818 15.397h-4.53l-1.21-2.992zm-1.275-3.21L59.95 7.2l-1.98 4.927h3.96z"
    fill="currentColor"></path>
  <path
    d="M80.17 19.351c0 .564.458 1.026 1.019.969 4.968-.51 8.844-4.708 8.844-9.811s-3.876-9.3-8.844-9.81c-.56-.059-1.019.404-1.019.967v2.721c0 .564.462 1.01 1.014 1.121a5.103 5.103 0 010 10.002c-.552.11-1.014.557-1.014 1.12v2.721zM77.11 2.536c0-.693-.68-1.182-1.302-.875a9.863 9.863 0 00-5.5 8.848 9.863 9.863 0 005.5 8.848c.622.307 1.301-.182 1.301-.876V2.537z"
    fill="#3F75FF"></path>
  <path
    d="M103.589 15.34h-6.511l-1.21 2.991h-4.443l6.797-15.397h4.289l6.818 15.397h-4.531l-1.209-2.992zm-1.276-3.212l-1.98-4.927-1.98 4.927h3.96zm15.289-9.194c1.393 0 2.603.235 3.63.704 1.026.455 1.818 1.114 2.375 1.98.557.85.836 1.855.836 3.013 0 1.159-.279 2.163-.836 3.013-.557.851-1.349 1.51-2.375 1.98-1.027.454-2.237.682-3.63.682h-2.683v4.025h-4.355V2.934h7.038zm-.264 7.94c.895 0 1.57-.19 2.024-.571.455-.396.682-.954.682-1.672s-.227-1.275-.682-1.672c-.454-.396-1.129-.593-2.024-.593h-2.419v4.508h2.419zm16.267-7.94c1.393 0 2.603.235 3.629.704 1.027.455 1.819 1.114 2.376 1.98.557.85.836 1.855.836 3.013 0 1.159-.279 2.163-.836 3.013-.557.851-1.349 1.51-2.376 1.98-1.026.454-2.236.682-3.629.682h-2.683v4.025h-4.355V2.934h7.038zm-.264 7.94c.895 0 1.569-.19 2.024-.571.454-.396.682-.954.682-1.672s-.228-1.275-.682-1.672c-.455-.396-1.129-.593-2.024-.593h-2.419v4.508h2.419z"
    fill="currentColor"></path>
  <path
    d="M146.783 4.484A4.484 4.484 0 01151.267 0h34.749a4.484 4.484 0 014.484 4.484v12.05a4.484 4.484 0 01-4.484 4.484h-34.749a4.484 4.484 0 01-4.484-4.484V4.484z"
    fill="#3F75FF"></path>
  <path fill-rule="evenodd" clip-rule="evenodd"
    d="M176.43 15.238a5.822 5.822 0 002.085.363c.763 0 1.457-.12 2.085-.363a4.951 4.951 0 001.655-1.022c.466-.44.829-.955 1.089-1.547a4.75 4.75 0 00.404-1.964c0-.708-.135-1.358-.404-1.95a4.704 4.704 0 00-1.089-1.547 4.843 4.843 0 00-1.655-1.036c-.628-.242-1.322-.363-2.085-.363-.753 0-1.448.12-2.085.363a4.998 4.998 0 00-1.668 1.036c-.466.44-.829.955-1.089 1.547a4.796 4.796 0 00-.39 1.95c0 .709.13 1.359.39 1.95.26.592.623 1.113 1.089 1.56.476.44 1.032.781 1.668 1.023zm3.081-2.03a2.592 2.592 0 01-.996.187c-.358 0-.695-.062-1.009-.188a2.457 2.457 0 01-.807-.538 2.814 2.814 0 01-.538-.86 3.107 3.107 0 01-.188-1.104c0-.412.063-.78.188-1.103.135-.332.314-.614.538-.847.233-.242.503-.426.807-.552a2.695 2.695 0 011.009-.188c.359 0 .691.063.996.188.314.126.583.31.807.552.233.233.412.515.538.847.134.323.202.69.202 1.103 0 .404-.068.771-.202 1.103a2.51 2.51 0 01-.538.861 2.275 2.275 0 01-.807.538zM160.547 12.534c-.618.278-1.358.417-2.219.417h-1.641v2.462h-2.664V5.997h4.305c.861 0 1.601.14 2.219.417.628.278 1.112.682 1.453 1.21.341.52.511 1.14.511 1.857 0 .709-.17 1.323-.511 1.843-.341.52-.825.924-1.453 1.21zm-1.143-2.044c-.269.242-.682.363-1.238.363h-1.479V8.096h1.479c.556 0 .969.12 1.238.363.278.242.417.583.417 1.022 0 .43-.139.767-.417 1.009zM169.634 15.413l-1.707-2.502h-1.454v2.502h-2.663V5.997h4.304c.861 0 1.601.14 2.22.417.627.278 1.112.682 1.452 1.21.341.52.512 1.14.512 1.857 0 .709-.171 1.323-.512 1.843-.318.478-.762.854-1.332 1.128l2.032 2.961h-2.852zm-.444-4.923c-.269.242-.681.363-1.237.363h-1.48V8.096h1.48c.556 0 .968.12 1.237.363.278.242.417.583.417 1.022 0 .43-.139.767-.417 1.009z"
    fill="#fff"></path>
</svg>