<svg xmlns="http://www.w3.org/2000/svg" version="1.1" viewBox="0.00 0.00 400.00 400.00" width="400.00" height="400.00">
<g stroke-width="2.00" fill="none" stroke-linecap="butt">
<path stroke="#011f34" d="&#10;  M 92.18 47.74&#10;  Q 86.42 47.77 81.12 52.13&#10;  Q 64.09 66.14 52.21 80.46&#10;  Q 33.34 103.21 22.31 130.96"/>
<path stroke="#794318" d="&#10;  M 22.31 130.96&#10;  Q 13.28 151.93 10.43 174.89&#10;  Q 8.95 186.77 8.38 198.61&#10;  A 5.12 5.07 34.2 0 0 8.85 201.00&#10;  L 11.28 206.27"/>
<path stroke="#011f34" d="&#10;  M 11.28 206.27&#10;  Q 8.96 209.36 9.21 213.74&#10;  Q 10.61 238.02 17.88 259.09"/>
<path stroke="#6d3118" d="&#10;  M 17.88 259.09&#10;  Q 17.85 260.52 18.21 261.55&#10;  C 46.79 345.23 127.05 398.94 215.76 391.00&#10;  Q 218.01 390.80 220.64 388.54"/>
<path stroke="#011f34" d="&#10;  M 220.64 388.54&#10;  Q 229.63 389.64 238.63 387.64&#10;  Q 272.41 380.13 301.56 361.56&#10;  Q 304.49 359.70 307.39 357.36"/>
<path stroke="#794318" d="&#10;  M 307.39 357.36&#10;  Q 308.80 356.22 309.24 354.05"/>
<path stroke="#011f34" d="&#10;  M 309.24 354.05&#10;  L 315.39 351.38&#10;  A 1.95 1.70 -72.1 0 0 315.84 351.11&#10;  Q 349.79 324.76 369.18 286.40&#10;  Q 379.41 266.17 384.60 243.70"/>
<path stroke="#79481f" d="&#10;  M 384.60 243.70&#10;  Q 395.81 194.66 381.99 148.50&#10;  Q 370.25 109.30 344.11 78.39&#10;  C 312.25 40.74 265.93 16.30 216.75 12.02&#10;  Q 155.20 6.65 102.10 37.60&#10;  Q 94.91 41.79 92.18 47.74"/>
<path stroke="#7a4d27" d="&#10;  M 384.60 243.70&#10;  Q 383.92 241.88 384.75 239.31&#10;  A 3.19 3.12 -36.8 0 0 384.90 238.35&#10;  C 384.87 229.60 385.39 222.90 384.32 214.91&#10;  C 383.23 206.75 382.41 200.81 379.02 192.69&#10;  Q 372.24 176.46 360.76 161.73&#10;  C 349.28 147.01 334.27 136.79 317.27 129.49&#10;  C 299.92 122.04 281.87 116.61 264.23 115.90&#10;  Q 248.71 115.26 237.51 116.34&#10;  Q 221.75 117.86 202.22 122.85&#10;  C 191.86 125.50 182.93 127.56 174.50 128.24&#10;  Q 169.95 128.60 152.02 129.90&#10;  Q 138.30 130.90 124.81 126.85&#10;  C 106.99 121.51 94.21 110.73 88.39 93.41&#10;  Q 80.45 69.81 92.18 47.74"/>
<path stroke="#794821" d="&#10;  M 309.24 354.05&#10;  C 314.75 337.81 319.34 321.93 323.60 304.41&#10;  Q 328.62 283.74 329.00 269.79&#10;  Q 329.82 239.33 318.61 211.42&#10;  Q 304.58 176.48 267.19 167.90&#10;  Q 256.15 165.36 249.38 164.89&#10;  Q 227.56 163.38 203.75 166.07&#10;  Q 179.97 168.75 157.17 173.47&#10;  Q 138.71 177.30 133.08 177.66&#10;  Q 119.81 178.52 105.03 177.21&#10;  C 78.55 174.87 55.99 164.30 36.27 146.74&#10;  Q 28.12 139.48 22.31 130.96"/>
<path stroke="#794821" d="&#10;  M 307.39 357.36&#10;  Q 311.03 344.55 310.30 330.99&#10;  Q 308.87 304.33 287.48 288.29&#10;  C 268.15 273.79 246.17 266.13 221.74 268.79&#10;  C 205.40 270.57 191.07 275.12 173.89 279.58&#10;  C 152.00 285.26 129.96 286.28 107.05 284.44&#10;  C 89.61 283.05 74.48 278.37 60.75 269.16&#10;  C 48.84 261.16 37.79 250.86 29.45 238.57&#10;  C 21.84 227.36 17.41 218.95 11.28 206.27"/>
<path stroke="#6e3520" d="&#10;  M 220.64 388.54&#10;  Q 232.29 378.09 233.57 363.16&#10;  C 234.33 354.32 233.09 345.42 229.35 337.06&#10;  C 223.95 325.00 211.48 321.50 199.01 320.06&#10;  Q 189.31 318.93 184.76 319.14&#10;  Q 170.49 319.79 156.65 322.52&#10;  C 143.13 325.19 135.11 326.67 122.80 327.15&#10;  Q 87.69 328.51 60.23 307.07&#10;  Q 43.50 294.00 29.95 276.81&#10;  Q 23.77 268.96 17.88 259.09"/>
</g>
<path fill="#001a2b" d="&#10;  M 400.00 0.00&#10;  L 400.00 400.00&#10;  L 0.00 400.00&#10;  L 0.00 0.00&#10;  L 400.00 0.00&#10;  Z&#10;  M 92.18 47.74&#10;  Q 86.42 47.77 81.12 52.13&#10;  Q 64.09 66.14 52.21 80.46&#10;  Q 33.34 103.21 22.31 130.96&#10;  Q 13.28 151.93 10.43 174.89&#10;  Q 8.95 186.77 8.38 198.61&#10;  A 5.12 5.07 34.2 0 0 8.85 201.00&#10;  L 11.28 206.27&#10;  Q 8.96 209.36 9.21 213.74&#10;  Q 10.61 238.02 17.88 259.09&#10;  Q 17.85 260.52 18.21 261.55&#10;  C 46.79 345.23 127.05 398.94 215.76 391.00&#10;  Q 218.01 390.80 220.64 388.54&#10;  Q 229.63 389.64 238.63 387.64&#10;  Q 272.41 380.13 301.56 361.56&#10;  Q 304.49 359.70 307.39 357.36&#10;  Q 308.80 356.22 309.24 354.05&#10;  L 315.39 351.38&#10;  A 1.95 1.70 -72.1 0 0 315.84 351.11&#10;  Q 349.79 324.76 369.18 286.40&#10;  Q 379.41 266.17 384.60 243.70&#10;  Q 395.81 194.66 381.99 148.50&#10;  Q 370.25 109.30 344.11 78.39&#10;  C 312.25 40.74 265.93 16.30 216.75 12.02&#10;  Q 155.20 6.65 102.10 37.60&#10;  Q 94.91 41.79 92.18 47.74&#10;  Z"/>
<path fill="#f27612" d="&#10;  M 384.60 243.70&#10;  Q 383.92 241.88 384.75 239.31&#10;  A 3.19 3.12 -36.8 0 0 384.90 238.35&#10;  C 384.87 229.60 385.39 222.90 384.32 214.91&#10;  C 383.23 206.75 382.41 200.81 379.02 192.69&#10;  Q 372.24 176.46 360.76 161.73&#10;  C 349.28 147.01 334.27 136.79 317.27 129.49&#10;  C 299.92 122.04 281.87 116.61 264.23 115.90&#10;  Q 248.71 115.26 237.51 116.34&#10;  Q 221.75 117.86 202.22 122.85&#10;  C 191.86 125.50 182.93 127.56 174.50 128.24&#10;  Q 169.95 128.60 152.02 129.90&#10;  Q 138.30 130.90 124.81 126.85&#10;  C 106.99 121.51 94.21 110.73 88.39 93.41&#10;  Q 80.45 69.81 92.18 47.74&#10;  Q 94.91 41.79 102.10 37.60&#10;  Q 155.20 6.65 216.75 12.02&#10;  C 265.93 16.30 312.25 40.74 344.11 78.39&#10;  Q 370.25 109.30 381.99 148.50&#10;  Q 395.81 194.66 384.60 243.70&#10;  Z"/>
<path fill="#01233c" d="&#10;  M 92.18 47.74&#10;  Q 80.45 69.81 88.39 93.41&#10;  C 94.21 110.73 106.99 121.51 124.81 126.85&#10;  Q 138.30 130.90 152.02 129.90&#10;  Q 169.95 128.60 174.50 128.24&#10;  C 182.93 127.56 191.86 125.50 202.22 122.85&#10;  Q 221.75 117.86 237.51 116.34&#10;  Q 248.71 115.26 264.23 115.90&#10;  C 281.87 116.61 299.92 122.04 317.27 129.49&#10;  C 334.27 136.79 349.28 147.01 360.76 161.73&#10;  Q 372.24 176.46 379.02 192.69&#10;  C 382.41 200.81 383.23 206.75 384.32 214.91&#10;  C 385.39 222.90 384.87 229.60 384.90 238.35&#10;  A 3.19 3.12 -36.8 0 1 384.75 239.31&#10;  Q 383.92 241.88 384.60 243.70&#10;  Q 379.41 266.17 369.18 286.40&#10;  Q 349.79 324.76 315.84 351.11&#10;  A 1.95 1.70 -72.1 0 1 315.39 351.38&#10;  L 309.24 354.05&#10;  C 314.75 337.81 319.34 321.93 323.60 304.41&#10;  Q 328.62 283.74 329.00 269.79&#10;  Q 329.82 239.33 318.61 211.42&#10;  Q 304.58 176.48 267.19 167.90&#10;  Q 256.15 165.36 249.38 164.89&#10;  Q 227.56 163.38 203.75 166.07&#10;  Q 179.97 168.75 157.17 173.47&#10;  Q 138.71 177.30 133.08 177.66&#10;  Q 119.81 178.52 105.03 177.21&#10;  C 78.55 174.87 55.99 164.30 36.27 146.74&#10;  Q 28.12 139.48 22.31 130.96&#10;  Q 33.34 103.21 52.21 80.46&#10;  Q 64.09 66.14 81.12 52.13&#10;  Q 86.42 47.77 92.18 47.74&#10;  Z"/>
<path fill="#f16c05" d="&#10;  M 22.31 130.96&#10;  Q 28.12 139.48 36.27 146.74&#10;  C 55.99 164.30 78.55 174.87 105.03 177.21&#10;  Q 119.81 178.52 133.08 177.66&#10;  Q 138.71 177.30 157.17 173.47&#10;  Q 179.97 168.75 203.75 166.07&#10;  Q 227.56 163.38 249.38 164.89&#10;  Q 256.15 165.36 267.19 167.90&#10;  Q 304.58 176.48 318.61 211.42&#10;  Q 329.82 239.33 329.00 269.79&#10;  Q 328.62 283.74 323.60 304.41&#10;  C 319.34 321.93 314.75 337.81 309.24 354.05&#10;  Q 308.80 356.22 307.39 357.36&#10;  Q 311.03 344.55 310.30 330.99&#10;  Q 308.87 304.33 287.48 288.29&#10;  C 268.15 273.79 246.17 266.13 221.74 268.79&#10;  C 205.40 270.57 191.07 275.12 173.89 279.58&#10;  C 152.00 285.26 129.96 286.28 107.05 284.44&#10;  C 89.61 283.05 74.48 278.37 60.75 269.16&#10;  C 48.84 261.16 37.79 250.86 29.45 238.57&#10;  C 21.84 227.36 17.41 218.95 11.28 206.27&#10;  L 8.85 201.00&#10;  A 5.12 5.07 34.2 0 1 8.38 198.61&#10;  Q 8.95 186.77 10.43 174.89&#10;  Q 13.28 151.93 22.31 130.96&#10;  Z"/>
<path fill="#01233c" d="&#10;  M 11.28 206.27&#10;  C 17.41 218.95 21.84 227.36 29.45 238.57&#10;  C 37.79 250.86 48.84 261.16 60.75 269.16&#10;  C 74.48 278.37 89.61 283.05 107.05 284.44&#10;  C 129.96 286.28 152.00 285.26 173.89 279.58&#10;  C 191.07 275.12 205.40 270.57 221.74 268.79&#10;  C 246.17 266.13 268.15 273.79 287.48 288.29&#10;  Q 308.87 304.33 310.30 330.99&#10;  Q 311.03 344.55 307.39 357.36&#10;  Q 304.49 359.70 301.56 361.56&#10;  Q 272.41 380.13 238.63 387.64&#10;  Q 229.63 389.64 220.64 388.54&#10;  Q 232.29 378.09 233.57 363.16&#10;  C 234.33 354.32 233.09 345.42 229.35 337.06&#10;  C 223.95 325.00 211.48 321.50 199.01 320.06&#10;  Q 189.31 318.93 184.76 319.14&#10;  Q 170.49 319.79 156.65 322.52&#10;  C 143.13 325.19 135.11 326.67 122.80 327.15&#10;  Q 87.69 328.51 60.23 307.07&#10;  Q 43.50 294.00 29.95 276.81&#10;  Q 23.77 268.96 17.88 259.09&#10;  Q 10.61 238.02 9.21 213.74&#10;  Q 8.96 209.36 11.28 206.27&#10;  Z"/>
<path fill="#da4704" d="&#10;  M 220.64 388.54&#10;  Q 218.01 390.80 215.76 391.00&#10;  C 127.05 398.94 46.79 345.23 18.21 261.55&#10;  Q 17.85 260.52 17.88 259.09&#10;  Q 23.77 268.96 29.95 276.81&#10;  Q 43.50 294.00 60.23 307.07&#10;  Q 87.69 328.51 122.80 327.15&#10;  C 135.11 326.67 143.13 325.19 156.65 322.52&#10;  Q 170.49 319.79 184.76 319.14&#10;  Q 189.31 318.93 199.01 320.06&#10;  C 211.48 321.50 223.95 325.00 229.35 337.06&#10;  C 233.09 345.42 234.33 354.32 233.57 363.16&#10;  Q 232.29 378.09 220.64 388.54&#10;  Z"/>
</svg>