<svg xmlns="http://www.w3.org/2000/svg" xmlns:xlink="http://www.w3.org/1999/xlink" fill="none" version="1.1" width="20" height="20" viewBox="0 0 20 20"><defs><clipPath id="master_svg0_4501_58494"><rect x="0" y="0" width="20" height="20" rx="0"/></clipPath></defs><g clip-path="url(#master_svg0_4501_58494)"><g><path d="M1.6640625,16.25L18.3307625,16.25L18.3307625,10L18.3307625,3.75L9.9973925,3.75L1.6640625,3.75L1.6640625,10L1.6640625,16.25Z" fill="#A5ADC6" fill-opacity="1" style="mix-blend-mode:passthrough"/><path d="M1.0807295,3.75L1.0807295,16.25Q1.0807295,16.307499999999997,1.0919375,16.363799999999998Q1.1031465,16.420099999999998,1.1251324999999999,16.4732Q1.1471195,16.5263,1.1790384999999999,16.5741Q1.2109575000000001,16.6219,1.2515835,16.6625Q1.2922095,16.7031,1.3399795,16.735Q1.3877505,16.7669,1.4408305,16.788899999999998Q1.4939105,16.8109,1.5502595,16.8221Q1.6066092,16.8333,1.6640625,16.8333L18.3307625,16.8333Q18.3881625,16.8333,18.4445625,16.8221Q18.5008625,16.8109,18.5539625,16.788899999999998Q18.6070625,16.7669,18.6547625,16.735Q18.7025625,16.7031,18.7431625,16.6625Q18.7838625,16.6219,18.8157625,16.5741Q18.8476625,16.5263,18.8696625,16.4732Q18.8916625,16.420099999999998,18.9028625,16.363799999999998Q18.9140625,16.307499999999997,18.9140625,16.25L18.9140625,3.75Q18.9140625,3.6925467,18.9028625,3.636197Q18.8916625,3.579848,18.8696625,3.526768Q18.8476625,3.473688,18.8157625,3.425917Q18.7838625,3.3781470000000002,18.7431625,3.337521Q18.7025625,3.296895,18.6547625,3.264976Q18.6070625,3.233057,18.5539625,3.21107Q18.5008625,3.1890840000000003,18.4445625,3.1778750000000002Q18.3881625,3.166667,18.3307625,3.166667L1.6640625,3.166667Q1.6066092,3.166667,1.5502595,3.1778750000000002Q1.4939105,3.1890840000000003,1.4408305,3.21107Q1.3877505,3.233057,1.3399795,3.264976Q1.2922095,3.296895,1.2515835,3.337521Q1.2109575000000001,3.3781470000000002,1.1790384999999999,3.425917Q1.1471195,3.473688,1.1251324999999999,3.526768Q1.1031465,3.579848,1.0919375,3.636197Q1.0807295,3.6925467,1.0807295,3.75ZM2.2473955,15.6667L2.2473955,4.333333L17.7473625,4.333333L17.7473625,15.6667L2.2473955,15.6667Z" fill-rule="evenodd" fill="#A5ADC6" fill-opacity="1" style="mix-blend-mode:passthrough"/></g><g><path d="M2.0140625,3.283333L2.0150625,3.282L1.5470615,2.930996L0.8450585,3.867001L1.3130625,4.218L1.3140625,4.216667L9.647392499999999,10.46667Q9.7231225,10.52346,9.8129325,10.5534Q9.9027325,10.58333,9.9973925,10.58333Q10.0920625,10.58333,10.1818625,10.5534Q10.2716625,10.52346,10.3473925,10.46667L18.6807625,4.216667L18.6817625,4.218L19.1497625,3.867L18.4477625,2.930996L17.9797625,3.282L17.9807625,3.283333L9.9973925,9.27083L2.0140625,3.283333L2.0140625,3.283333Z" fill-rule="evenodd" fill="#FFFFFF" fill-opacity="1" style="mix-blend-mode:passthrough"/></g><g><path d="M9.9973925,4.333333L9.9973925,4.335L10.5824025,4.335003L10.5824025,3.164997L9.9973925,3.165L9.9973925,3.166667L1.6640625,3.166667Q1.6066092,3.166667,1.5502595,3.1778750000000002Q1.4939105,3.1890840000000003,1.4408305,3.21107Q1.3877505,3.233057,1.3399795,3.264976Q1.2922095,3.296895,1.2515835,3.337521Q1.2109575000000001,3.3781470000000002,1.1790384999999999,3.425917Q1.1471195,3.473688,1.1251324999999999,3.526768Q1.1031465,3.579848,1.0919375,3.636197Q1.0807295,3.6925467,1.0807295,3.75L1.0807295,10L1.0790625,10L1.0790595,10.585L2.2490655,10.585L2.2490625,10L2.2473955,10L2.2473955,4.333333L9.9973925,4.333333Z" fill-rule="evenodd" fill="#A5ADC6" fill-opacity="1" style="mix-blend-mode:passthrough"/></g><g><path d="M10,3.166667L10,3.165L9.414997,3.164997L9.414997,4.335003L10,4.335L10,4.333333L17.75,4.333333L17.75,10L17.74833,10L17.74833,10.585L18.91834,10.585L18.918329999999997,10L18.91667,10L18.91667,3.75Q18.91667,3.6925467,18.905459999999998,3.636197Q18.89425,3.579848,18.87226,3.526768Q18.850279999999998,3.473688,18.81836,3.425917Q18.78644,3.3781470000000002,18.74581,3.337521Q18.70518,3.296895,18.65741,3.264976Q18.60964,3.233057,18.556559999999998,3.21107Q18.50348,3.1890840000000003,18.44713,3.1778750000000002Q18.390790000000003,3.166667,18.33333,3.166667L10,3.166667Z" fill-rule="evenodd" fill="#A5ADC6" fill-opacity="1" style="mix-blend-mode:passthrough"/></g></g></svg>