<svg xmlns="http://www.w3.org/2000/svg" xmlns:xlink="http://www.w3.org/1999/xlink" fill="none" version="1.1" width="40" height="40" viewBox="0 0 40 40"><defs><clipPath id="master_svg0_4760_67140"><rect x="0" y="0" width="40" height="40" rx="0"/></clipPath><mask id="master_svg1_4760_67145" style="mask-type:alpha" maskUnits="objectBoundingBox"><g><rect x="13.08984375" y="22.017578125" width="11.96484375" height="9.750986099243164" rx="0" fill="#FFFFFF" fill-opacity="1"/></g></mask></defs><g clip-path="url(#master_svg0_4760_67140)"><g><path d="M39.4579625,20Q39.4579625,20.491,39.4345625,20.9814Q39.4110625,21.4717,39.3642625,21.9603Q39.3174625,22.4489,39.2473625,22.9346Q39.1772625,23.4203,39.0840625,23.9018Q38.9908625,24.3833,38.8747625,24.8596Q38.7587625,25.3359,38.6200625,25.8057Q38.4813625,26.2755,38.3204625,26.7378Q38.1595625,27.2001,37.9767625,27.6537Q37.7938625,28.1073,37.5896625,28.5511Q37.3854625,28.9949,37.1602625,29.4279Q36.9350625,29.8609,36.6894625,30.2821Q36.4438625,30.7032,36.1784625,31.1114Q35.9130625,31.5196,35.6284625,31.914Q35.3439625,32.3083,35.0408625,32.6879Q34.7378625,33.0674,34.4170625,33.4312Q34.0962625,33.795,33.7584625,34.1421Q33.4206625,34.4893,33.0666625,34.819Q32.7127625,35.1487,32.3434625,35.4602Q31.9741625,35.7717,31.5904625,36.0641Q31.2067625,36.3566,30.8095625,36.6294Q30.4124625,36.9022,30.0026625,37.1546Q29.5929625,37.407,29.1716625,37.6384Q28.7503625,37.8699,28.3184625,38.0798Q27.8866625,38.2897,27.4453625,38.4776Q27.0039625,38.6655,26.5542625,38.8309Q26.1044625,38.9963,25.6472625,39.1388Q25.1901625,39.2813,24.7267625,39.4006Q24.2633625,39.5199,23.7948625,39.6157Q23.3263625,39.7115,22.8538625,39.7835Q22.3812625,39.8556,21.9058625,39.9037Q21.4304625,39.9518,20.9533625,39.9759Q20.4762625,40,19.9985625,40Q19.5208625,40,19.0436625,39.9759Q18.5665625,39.9518,18.0911625,39.9037Q17.6157625,39.8556,17.1432625,39.7835Q16.6706625,39.7115,16.2021625,39.6157Q15.7336625,39.5199,15.2702625,39.4006Q14.8068625,39.2813,14.3497625,39.1388Q13.8925625,38.9963,13.4428625,38.8309Q12.9930625,38.6655,12.5516625,38.4776Q12.1103625,38.2897,11.6785625,38.0798Q11.2466625,37.8699,10.8253625,37.6384Q10.4041025,37.407,9.9943625,37.1546Q9.5846225,36.9022,9.1874225,36.6294Q8.7902325,36.3566,8.4065325,36.0641Q8.0228425,35.7717,7.6535725,35.4602Q7.2843025,35.1487,6.9303425,34.819Q6.5763925,34.4893,6.2386025,34.1421Q5.9008225,33.795,5.5800125,33.4312Q5.2592025,33.0674,4.9561525,32.6879Q4.6531025,32.3083,4.368532500000001,31.914Q4.0839725,31.5196,3.8185725,31.1114Q3.5531725,30.7032,3.3075825,30.2821Q3.0620025,29.8609,2.8368125,29.4279Q2.6116225,28.9949,2.4073824999999998,28.5511Q2.2031324999999997,28.1073,2.0203225,27.6537Q1.8375125,27.2001,1.6765825,26.7378Q1.5156494999999999,26.2755,1.3769805000000002,25.8057Q1.2383104999999999,25.3359,1.1222385,24.8596Q1.0061655,24.3833,0.9129705,23.9018Q0.8197755,23.4203,0.7496815,22.9346Q0.6795885,22.4489,0.6327651,21.9603Q0.585942,21.4717,0.5625023,20.9814Q0.5390625,20.491,0.5390625,20Q0.5390625,19.509,0.5625023,19.0186Q0.585942,18.5283,0.6327651,18.0397Q0.6795885,17.551,0.7496815,17.0654Q0.8197755,16.5797,0.9129705,16.0982Q1.0061655,15.6167,1.1222385,15.1404Q1.2383104999999999,14.6641,1.3769805000000002,14.1943Q1.5156494999999999,13.7245,1.6765825,13.2622Q1.8375125,12.7999,2.0203225,12.3463Q2.2031324999999997,11.8927,2.4073824999999998,11.4489Q2.6116225,11.0051,2.8368125,10.5721Q3.0620025,10.1391,3.3075825,9.71794Q3.5531725,9.29682,3.8185725,8.88859Q4.0839725,8.48036,4.368532500000001,8.08601Q4.6531025,7.69166,4.9561525,7.31213Q5.2592025,6.93261,5.5800125,6.56882Q5.9008225,6.20503,6.2386025,5.85786Q6.5763925,5.51069,6.9303425,5.18098Q7.2843025,4.85126,7.6535725,4.53979Q8.0228425,4.22832,8.4065325,3.93585Q8.7902325,3.64338,9.1874225,3.37061Q9.5846225,3.09784,9.9943625,2.84543Q10.4041025,2.59302,10.8253625,2.36157Q11.2466625,2.13013,11.6785625,1.92021Q12.1103625,1.7103,12.5516625,1.52241Q12.9930625,1.33452,13.4428625,1.16912Q13.8925625,1.00371,14.3497625,0.861193Q14.8068625,0.718671,15.2702625,0.599375Q15.7336625,0.480078,16.2021625,0.384294Q16.6706625,0.28851,17.1432625,0.21647Q17.6157625,0.144429,18.0911625,0.0963055Q18.5665625,0.0481817,19.0436625,0.0240909Q19.5208625,0,19.9985625,0Q20.4762625,0,20.9533625,0.0240909Q21.4304625,0.0481817,21.9058625,0.0963055Q22.3812625,0.144429,22.8538625,0.21647Q23.3263625,0.28851,23.7948625,0.384294Q24.2633625,0.480078,24.7267625,0.599375Q25.1901625,0.718671,25.6472625,0.861193Q26.1044625,1.00371,26.5542625,1.16912Q27.0039625,1.33452,27.4453625,1.52241Q27.8866625,1.7103,28.3184625,1.92021Q28.7503625,2.13013,29.1716625,2.36157Q29.5929625,2.59302,30.0026625,2.84543Q30.4124625,3.09784,30.8096625,3.37061Q31.2067625,3.64338,31.5904625,3.93585Q31.9741625,4.22832,32.3434625,4.53979Q32.7127625,4.85126,33.0666625,5.18098Q33.4206625,5.51069,33.7584625,5.85786Q34.0962625,6.20503,34.4170625,6.56882Q34.7378625,6.93261,35.0408625,7.31213Q35.3439625,7.69166,35.6284625,8.08601Q35.9130625,8.48036,36.1784625,8.88859Q36.4438625,9.29682,36.6894625,9.71794Q36.9350625,10.1391,37.1602625,10.5721Q37.3854625,11.0051,37.5896625,11.4489Q37.7938625,11.8927,37.9767625,12.3463Q38.1595625,12.7999,38.3204625,13.2622Q38.4813625,13.7245,38.6200625,14.1943Q38.7587625,14.6641,38.8747625,15.1404Q38.9908625,15.6167,39.0840625,16.0982Q39.1772625,16.5797,39.2473625,17.0654Q39.3174625,17.551,39.3642625,18.0397Q39.4110625,18.5283,39.4345625,19.0186Q39.4579625,19.509,39.4579625,20Z" fill="#6E75F9" fill-opacity="1" style="mix-blend-mode:passthrough"/></g><g><path d="M10.409790000000001,13.0741L13.85096,13.0741L15.29684,10.5L11.85566,10.5L10.409790000000001,13.0741ZM14.74741,13.0741L18.1886,13.0741L19.6345,10.5L16.19328,10.5L14.74741,13.0741ZM8,17.40523L18.027900000000002,17.40523L18.0273,32.8904L21.4023,32.8904L21.401600000000002,16.72766L22.8604,13.987490000000001L32.072199999999995,13.91774L34,10.5L20.9197,10.5L18.991799999999998,13.987490000000001L9.92783,13.987490000000001L8,17.40523Z" fill="#FFFFFF" fill-opacity="1"/></g><g><path d="M27.5707,1.59843203125Q23.9577,0.02783203125,20.0017,0.02783203125Q16.0457,0.027829031250000025,12.4327,1.59843203125Q8.94392,3.11505203125,6.2537,5.88000203125Q3.56419,8.64420203125,2.08929,12.22813203125Q0.5625,15.93813203125,0.562497,20.00003203125Q0.562497,24.06193203125,2.08929,27.77203203125Q3.56419,31.35593203125,6.2537,34.12013203125Q8.94392,36.88513203125,12.4327,38.40173203125Q16.0457,39.97223203125,20.0017,39.97233203125Q23.9577,39.97223203125,27.5707,38.40173203125Q31.0595,36.88503203125,33.7497,34.12013203125Q36.4392,31.35593203125,37.9141,27.77203203125Q39.4409,24.06203203125,39.4409,20.00003203125Q39.4409,15.93813203125,37.9141,12.22813203125Q36.4392,8.64419203125,33.7497,5.88000203125Q31.0594,3.11505203125,27.5707,1.59843203125ZM12.6321,2.05697203125Q16.1497,0.52782903125,20.0017,0.52782903125Q23.8537,0.52783203125,27.3713,2.05697203125Q30.7698,3.53433203125,33.3913,6.22868203125Q36.0135,8.92370203125,37.4517,12.41843203125Q38.9409,16.03703203125,38.9409,20.00003203125Q38.9409,23.96313203125,37.4517,27.58173203125Q36.0135,31.07643203125,33.3913,33.77143203125Q30.7698,36.46583203125,27.3713,37.94313203125Q23.8538,39.47223203125,20.0017,39.47233203125Q16.1496,39.47233203125,12.6321,37.94313203125Q9.23357,36.46583203125,6.61207,33.77143203125Q3.98984,31.07643203125,2.55167,27.58173203125Q1.062497,23.96313203125,1.062497,20.00003203125Q1.0625,16.03703203125,2.55167,12.41843203125Q3.98985,8.92373203125,6.61207,6.22868203125Q9.23359,3.53434203125,12.6321,2.05697203125Z" fill-rule="evenodd" fill="#FFFFFF" fill-opacity="0.30000001192092896" style="mix-blend-mode:passthrough"/></g><g mask="url(#master_svg1_4760_67145)"><g><path d="M22.91765125,20.397886300048828Q22.79435125,19.22314630004883,21.823621250000002,18.530616300048827Q20.85301125,17.83809630004883,19.37834125,17.83809630004883Q18.34358125,17.83809630004883,17.555421250000002,18.176326300048828Q16.76737125,18.514546300048828,16.32246125,19.105406300048827Q15.87767125,19.696256300048827,15.87767125,20.452736300048826Q15.87767125,21.00587630004883,16.13151125,21.42413630004883Q16.38536125,21.84238630004883,16.81451125,22.14290630004883Q17.24367125,22.443416300048828,17.76949125,22.65490630004883Q18.29531125,22.866286300048827,18.836761250000002,23.012526300048826L20.40334125,23.43313630004883Q21.11173125,23.622766300048827,21.82249125,23.908496300048828Q22.53325125,24.19422630004883,23.12435125,24.629626300048827Q23.715441249999998,25.065026300048828,24.07558125,25.694656300048827Q24.43588125,26.32429630004883,24.43588125,27.19967630004883Q24.43588125,28.324176300048826,23.81936125,29.22237630004883Q23.20288125,30.120676300048828,22.04732125,30.64407630004883Q20.891771249999998,31.167476300048826,19.28167125,31.167476300048826Q17.76586125,31.167476300048826,16.65133125,30.693176300048826Q15.53679125,30.218876300048827,14.89731025,29.374476300048826Q14.25794065,28.529876300048826,14.17578125,27.41907630004883L15.56830125,27.41907630004883Q15.64082125,28.250976300048826,16.14851125,28.826976300048827Q16.65620125,29.402976300048827,17.46963125,29.700176300048827Q18.28318125,29.997176300048828,19.28167125,29.997176300048828Q20.39371125,29.997176300048828,21.26041125,29.64407630004883Q22.12710125,29.290976300048825,22.62391125,28.657876300048827Q23.120721250000003,28.024776300048828,23.120721250000003,27.18137630004883Q23.120721250000003,26.463786300048827,22.72908125,25.980386300048828Q22.33743125,25.496996300048828,21.63868125,25.167876300048828Q20.94004125,24.83875630004883,20.01657125,24.585056300048826L18.23728125,24.09137630004883Q16.49415125,23.602196300048828,15.52829125,22.73139630004883Q14.56255325,21.86060630004883,14.56255325,20.50758630004883Q14.56255325,19.376236300048827,15.20555125,18.51572630004883Q15.84866125,17.655216300048828,16.94744125,17.170750300048827Q18.04622125,16.686176300048828,19.41698125,16.686176300048828Q20.79986125,16.686176300048828,21.86601125,17.168393300048827Q22.93215125,17.65061030004883,23.55826125,18.48947630004883Q24.184481249999997,19.32824630004883,24.232781250000002,20.397886300048828L22.91765125,20.397886300048828Z" fill="#6E75F9" fill-opacity="1"/></g></g><g><path d="M22.91765125,20.999063515625Q22.79435125,19.824323515625,21.823621250000002,19.131793515625Q20.85301125,18.439273515625,19.37834125,18.439273515625Q18.34358125,18.439273515625,17.555421250000002,18.777503515625Q16.76737125,19.115723515625,16.32246125,19.706583515625Q15.87767125,20.297433515625,15.87767125,21.053913515625Q15.87767125,21.607053515625,16.13151125,22.025313515625Q16.38536125,22.443563515625,16.81451125,22.744083515625Q17.24367125,23.044593515625,17.76949125,23.256083515625Q18.29531125,23.467463515625,18.836761250000002,23.613703515624998L20.40334125,24.034313515625Q21.11173125,24.223943515625,21.82249125,24.509673515625Q22.53325125,24.795403515625,23.12435125,25.230803515625Q23.715441249999998,25.666203515625,24.07558125,26.295833515625Q24.43588125,26.925473515625,24.43588125,27.800853515625Q24.43588125,28.925353515624998,23.81936125,29.823553515625Q23.20288125,30.721853515625,22.04732125,31.245253515625002Q20.891771249999998,31.768653515624997,19.28167125,31.768653515624997Q17.76586125,31.768653515624997,16.65133125,31.294353515624998Q15.53679125,30.820053515625,14.89731025,29.975653515624998Q14.25794065,29.131053515625,14.17578125,28.020253515625L15.56830125,28.020253515625Q15.64082125,28.852153515624998,16.14851125,29.428153515625Q16.65620125,30.004153515625,17.46963125,30.301353515625Q18.28318125,30.598353515625,19.28167125,30.598353515625Q20.39371125,30.598353515625,21.26041125,30.245253515625002Q22.12710125,29.892153515624997,22.62391125,29.259053515625Q23.120721250000003,28.625953515625,23.120721250000003,27.782553515625Q23.120721250000003,27.064963515625,22.72908125,26.581563515625Q22.33743125,26.098173515625,21.63868125,25.769053515625Q20.94004125,25.439933515625,20.01657125,25.186233515625L18.23728125,24.692553515625Q16.49415125,24.203373515625,15.52829125,23.332573515625Q14.56255325,22.461783515625,14.56255325,21.108763515625Q14.56255325,19.977413515625,15.20555125,19.116903515625Q15.84866125,18.256393515625,16.94744125,17.771927515625Q18.04622125,17.287353515625,19.41698125,17.287353515625Q20.79986125,17.287353515625,21.86601125,17.769570515625Q22.93215125,18.251787515625,23.55826125,19.090653515625Q24.184481249999997,19.929423515625,24.232781250000002,20.999063515625L22.91765125,20.999063515625Z" fill="#FFFFFF" fill-opacity="1"/></g></g></svg>