<svg id="Layer_1" style="background-color: black;" data-name="Layer 1" xmlns="http://www.w3.org/2000/svg"
  viewBox="0 0 173.53 213.93">
  <defs>
    <style>
      .cls-1 {
        fill: #fff;
      }
    </style>
  </defs>
  <path class="cls-1"
    d="M259.75,152.82a19,19,0,0,1-1.88,7.61,63,63,0,0,1-7.67,12.78,145.36,145.36,0,0,1-31.74,31.19,57,57,0,0,1-11.41,6.51,17.61,17.61,0,0,1-8,1.61,19.54,19.54,0,0,1-6.06-1.6,63.69,63.69,0,0,1-13.18-7.75,135.32,135.32,0,0,1-14.43-12.31,140,140,0,0,1-16.54-19,60.36,60.36,0,0,1-7-12.1,17.39,17.39,0,0,1-1.6-7.94,19.86,19.86,0,0,1,1.61-6.11,62.66,62.66,0,0,1,7.34-12.59,137.69,137.69,0,0,1,12.66-14.94,140.63,140.63,0,0,1,19.05-16.6,60.67,60.67,0,0,1,12.05-7,17.37,17.37,0,0,1,7.94-1.6A19.93,19.93,0,0,1,207,94.68a62.31,62.31,0,0,1,13.48,8,146,146,0,0,1,30.65,31.05A59.43,59.43,0,0,1,258,145.55,18.54,18.54,0,0,1,259.75,152.82ZM191.9,187.21c.51-.05,1-.09,1.54-.17a31.82,31.82,0,0,0,7-2.11,121.48,121.48,0,0,0,25.91-14.6,37.17,37.17,0,0,0,6.57-5.9,5.79,5.79,0,0,0,1.33-5.09,35.72,35.72,0,0,0-2.11-7,121.62,121.62,0,0,0-14.59-25.9,36.57,36.57,0,0,0-5.94-6.61,5.81,5.81,0,0,0-5.1-1.32,36.57,36.57,0,0,0-7,2.12,122,122,0,0,0-25.91,14.6,37.17,37.17,0,0,0-6.57,5.9,5.49,5.49,0,0,0-1.31,5.09,49.78,49.78,0,0,0,1.68,5.82,117.62,117.62,0,0,0,15.6,27.85,32.39,32.39,0,0,0,5.35,5.81A5.44,5.44,0,0,0,191.9,187.21Z"
    transform="translate(-113.24 -93.04)" />
  <path class="cls-1"
    d="M115.47,304.89a6.74,6.74,0,0,1-2.23-5.14,7,7,0,0,1,2.23-5.26,8.05,8.05,0,0,1,5.77-2.12,7.93,7.93,0,0,1,5.68,2.12,6.93,6.93,0,0,1,2.24,5.26,6.72,6.72,0,0,1-2.24,5.14,8,8,0,0,1-5.68,2.07A8.15,8.15,0,0,1,115.47,304.89Z"
    transform="translate(-113.24 -93.04)" />
  <path class="cls-1"
    d="M176,267.07q4.59,5,4.59,13.69v25.58H167.29V282.57a9.6,9.6,0,0,0-2.28-6.83,8.92,8.92,0,0,0-12.24,0,9.64,9.64,0,0,0-2.27,6.83v23.77H137.08V262.56H150.5v5.81a14.08,14.08,0,0,1,5.49-4.59,17.39,17.39,0,0,1,7.77-1.69Q171.44,262.09,176,267.07Z"
    transform="translate(-113.24 -93.04)" />
  <path class="cls-1"
    d="M189.84,272.53a19,19,0,0,1,6.94-7.85,18.15,18.15,0,0,1,9.81-2.75,16.79,16.79,0,0,1,8.12,1.89,13.76,13.76,0,0,1,5.37,4.94v-6.2H233.5v43.78H220.08v-6.2a14.35,14.35,0,0,1-5.45,4.94,16.79,16.79,0,0,1-8.12,1.88,17.77,17.77,0,0,1-9.73-2.78,19.28,19.28,0,0,1-6.94-7.92,26.44,26.44,0,0,1-2.55-11.89A26.1,26.1,0,0,1,189.84,272.53Zm27.46,4a9.41,9.41,0,0,0-13.57,0,10.8,10.8,0,0,0-2.79,7.88,11.08,11.08,0,0,0,2.79,8,9.32,9.32,0,0,0,13.57,0,12.67,12.67,0,0,0,0-15.84Z"
    transform="translate(-113.24 -93.04)" />
  <path class="cls-1"
    d="M243.11,272.53a19,19,0,0,1,6.94-7.85,18.15,18.15,0,0,1,9.81-2.75,17.27,17.27,0,0,1,7.88,1.81,14.33,14.33,0,0,1,5.61,4.86V248.28h13.41v58.06H273.35v-6.28a13.71,13.71,0,0,1-5.37,5,16.82,16.82,0,0,1-8.12,1.88,17.92,17.92,0,0,1-9.81-2.78,19.28,19.28,0,0,1-6.94-7.92,26.44,26.44,0,0,1-2.55-11.89A26.1,26.1,0,0,1,243.11,272.53Zm27.46,4a9.42,9.42,0,0,0-13.58,0,10.84,10.84,0,0,0-2.78,7.88,11.12,11.12,0,0,0,2.78,8,9.33,9.33,0,0,0,13.58,0,12.67,12.67,0,0,0,0-15.84Z"
    transform="translate(-113.24 -93.04)" />
</svg>