<svg xmlns="http://www.w3.org/2000/svg" xmlns:xlink="http://www.w3.org/1999/xlink" fill="none" version="1.1" width="20" height="20" viewBox="0 0 20 20"><defs><clipPath id="master_svg0_4550_55883"><rect x="0" y="0" width="20" height="20" rx="0"/></clipPath></defs><g clip-path="url(#master_svg0_4550_55883)"><g><path d="M3.99624875,15.7776734375C4.9803887499999995,16.8003734375,6.22325875,17.5721734375,7.61954875,17.9878734375C7.94179875,16.9797734375,8.88629875,16.2498734375,10.00129875,16.2498734375C11.11629875,16.2498734375,12.06076875,16.9797734375,12.38306875,17.9878734375C13.77936875,17.5721734375,15.02216875,16.8003734375,16.00636875,15.7776734375C15.63916875,15.3425734375,15.41796875,14.7803734375,15.41796875,14.1664734375C15.41796875,12.7857734375,16.537268750000003,11.6665034375,17.91796875,11.6665034375C18.00146875,11.6665034375,18.08406875,11.6706334375,18.16546875,11.6786334375C18.27636875,11.1363434375,18.33466875,10.5749234375,18.33466875,9.9998434375C18.33466875,9.1287534375,18.20096875,8.288883437500001,17.95306875,7.4995934375C17.94136875,7.4997534375,17.92966875,7.4998434375,17.91796875,7.4998434375C16.537268750000003,7.4998434375,15.41796875,6.3805534375,15.41796875,4.9998434375C15.41796875,4.6034634375,15.51016875,4.2286734374999995,15.67436875,3.8956734375C14.71066875,2.9995934374999997,13.53446875,2.3289734375,12.22956875,1.9677734375C11.81616875,2.7782114375,10.97350875,3.3331834375,10.00129875,3.3331834375C9.02908875,3.3331834375,8.18646875,2.7782114375,7.77300875,1.9677734375C6.46817875,2.3289734375,5.29192875,2.9995934374999997,4.32821875,3.8956734375C4.49238875,4.2286734374999995,4.58463875,4.6034634375,4.58463875,4.9998434375C4.58463875,6.3805534375,3.46534875,7.4998434375,2.08463575,7.4998434375C2.07291875,7.4998434375,2.0612227499999998,7.4997534375,2.04954775,7.4995934375C1.80162275,8.288883437500001,1.66796875,9.1287534375,1.66796875,9.9998434375C1.66796875,10.5749234375,1.72621465,11.1363434375,1.83713175,11.6786334375C1.91854775,11.6706334375,2.00111475,11.6665034375,2.08463575,11.6665034375C3.46534875,11.6665034375,4.58463875,12.7857734375,4.58463875,14.1664734375C4.58463875,14.7803734375,4.36338875,15.3425734375,3.99624875,15.7776734375ZM9.99999875,13.9999734375Q10.19650875,13.9999734375,10.39206875,13.9807734375Q10.58762875,13.9614734375,10.78035875,13.9231734375Q10.97308875,13.8847734375,11.16113875,13.8277734375Q11.34918875,13.7706734375,11.53072875,13.6954734375Q11.71226875,13.6202734375,11.88556875,13.5276734375Q12.05886875,13.4350734375,12.22226875,13.3258734375Q12.38566875,13.2166734375,12.53756875,13.0920734375Q12.68946875,12.9673734375,12.82846875,12.8284734375Q12.96736875,12.6894734375,13.09206875,12.5375734375Q13.21666875,12.3856734375,13.32586875,12.2222734375Q13.43506875,12.0588734375,13.52766875,11.8855834375Q13.62026875,11.7122834375,13.69546875,11.5307334375Q13.77066875,11.3491834375,13.82776875,11.1611334375Q13.88476875,10.9730934375,13.92316875,10.7803634375Q13.96146875,10.5876334375,13.98076875,10.3920634375Q13.99996875,10.1965034375,13.99996875,10.0000034375Q13.99996875,9.8034934375,13.98076875,9.6079334375Q13.96146875,9.412373437500001,13.92316875,9.2196334375Q13.88476875,9.0269034375,13.82776875,8.838863437499999Q13.77066875,8.6508134375,13.69546875,8.4692634375Q13.62026875,8.287713437499999,13.52766875,8.1144134375Q13.43506875,7.9411034375,13.32586875,7.7777134375Q13.21666875,7.6143234375,13.09206875,7.4624234375Q12.96736875,7.3105234375,12.82846875,7.1715734375Q12.68946875,7.0326234375,12.53756875,6.9079634375Q12.38566875,6.7832934375,12.22226875,6.6741234375Q12.05886875,6.5649434375,11.88556875,6.4723134375Q11.71226875,6.3796834375,11.53072875,6.3044834375Q11.34918875,6.2292834375,11.16113875,6.1722434375Q10.97308875,6.1151934375,10.78035875,6.0768634375Q10.58762875,6.0385234375,10.39206875,6.0192634375Q10.19650875,6.0000034375,9.99999875,6.0000034375Q9.80348875,6.0000034375,9.60792875,6.0192634375Q9.412368749999999,6.0385234375,9.21963875,6.0768634375Q9.02690875,6.1151934375,8.83885875,6.1722434375Q8.65081875,6.2292834375,8.469268750000001,6.3044834375Q8.28771875,6.3796834375,8.114408749999999,6.4723134375Q7.94110875,6.5649434375,7.77771875,6.6741234375Q7.61432875,6.7832934375,7.46242875,6.9079534375Q7.31052875,7.0326234375,7.17156875,7.1715734375Q7.03261875,7.3105234375,6.90795875,7.4624234375Q6.78329875,7.6143234375,6.67411875,7.7777134375Q6.56494875,7.9411034375,6.47231875,8.1144134375Q6.37967875,8.287713437499999,6.30447875,8.4692634375Q6.22927875,8.6508134375,6.17223875,8.838863437499999Q6.11519875,9.0269034375,6.07685875,9.2196334375Q6.03851875,9.412373437500001,6.01925875,9.6079334375Q5.99999875,9.8034934375,5.99999875,10.0000034375Q5.99999875,10.1965034375,6.01925875,10.3920634375Q6.03851875,10.5876334375,6.07685875,10.7803634375Q6.11519875,10.9730934375,6.17223875,11.1611334375Q6.22927875,11.3491834375,6.30447875,11.5307334375Q6.37967875,11.7122834375,6.47231875,11.8855834375Q6.56494875,12.0588734375,6.67411875,12.2222734375Q6.78329875,12.3856734375,6.90795875,12.5375734375Q7.03261875,12.6894734375,7.17156875,12.8284734375Q7.31052875,12.9673734375,7.46242875,13.0920734375Q7.61432875,13.2166734375,7.77771875,13.3258734375Q7.94110875,13.4350734375,8.114408749999999,13.5276734375Q8.28771875,13.6202734375,8.469268750000001,13.6954734375Q8.65081875,13.7706734375,8.83885875,13.8277734375Q9.02690875,13.8847734375,9.21963875,13.9231734375Q9.412368749999999,13.9614734375,9.60792875,13.9807734375Q9.80348875,13.9999734375,9.99999875,13.9999734375Z" fill-rule="evenodd" fill="#6E75F9" fill-opacity="1" style="mix-blend-mode:passthrough"/><path d="M4.17637875,15.6043734375Q5.65674875,17.1426734375,7.69088875,17.7482734375L7.61954875,17.9878734375L7.38142875,17.9116734375Q7.65067875,17.0694734375,8.36417875,16.5400734375Q9.092268749999999,15.9998734375,10.00129875,15.9998734375Q10.91033875,15.9998734375,11.63842875,16.5400734375Q12.35196875,17.0694734375,12.62116875,17.9116734375L12.38306875,17.9878734375L12.31166875,17.7482734375Q14.34586875,17.1426734375,15.82616875,15.6043734375L16.00636875,15.7776734375L15.81526875,15.9389734375Q15.16796875,15.1717734375,15.16796875,14.1664734375Q15.16796875,13.0274734375,15.97346875,12.2219734375Q16.77886875,11.4165034375,17.91796875,11.4165034375Q18.05426875,11.4165034375,18.18986875,11.4298334375L18.16546875,11.6786334375L17.92056875,11.6285334375Q18.08466875,10.8262434375,18.08466875,9.9998434375Q18.08466875,8.7527934375,17.71456875,7.5745034375L17.95306875,7.4995934375L17.95486875,7.7495834375L17.91986875,7.7498334375L17.91796875,7.7498434375Q16.77886875,7.7498434375,15.97346875,6.9443834375Q15.16796875,6.1389234375,15.16796875,4.9998434375Q15.16796875,4.357523437499999,15.45016875,3.7851334375L15.67436875,3.8956734375L15.50416875,4.0787634375Q14.05676875,2.7329844375,12.16286875,2.2087124375L12.22956875,1.9677734375L12.45226875,2.0813844375Q11.68616875,3.5831834375,10.00129875,3.5831834375Q8.316488750000001,3.5831834375,7.55031875,2.0813844375L7.77300875,1.9677734375L7.83970875,2.2087124375Q5.94578875,2.7329814375,4.49845875,4.0787634375L4.32821875,3.8956734375L4.55244875,3.7851334375Q4.83463875,4.3575134375,4.83463875,4.9998434375Q4.83463875,6.1389234375,4.02917875,6.9443834375Q3.2237187499999997,7.7498434375,2.08463575,7.7498434375L2.04777275,7.7495834375L2.04954775,7.4995934375L2.2880587500000003,7.5745134375Q1.91796875,8.7527234375,1.91796875,9.9998434375Q1.91796875,10.8262634375,2.08206075,11.6285334375L1.83713175,11.6786334375L1.81268575,11.4298334375Q1.94829375,11.4165034375,2.08463575,11.4165034375Q3.2237187499999997,11.4165034375,4.02917875,12.2219734375Q4.83463875,13.0273734375,4.83463875,14.1664734375Q4.83463875,15.1717734375,4.18731875,15.9389734375L3.99624875,15.7776734375L4.17637875,15.6043734375ZM3.81611875,15.9510734375Q3.78395875,15.9176734375,3.76592875,15.8749734375Q3.74789875,15.8322734375,3.74637875,15.7858734375Q3.74486875,15.7395734375,3.76006875,15.6957734375Q3.77527875,15.6519734375,3.80517875,15.6164734375Q4.33463875,14.9889734375,4.33463875,14.1664734375Q4.33463875,13.2345734375,3.67562875,12.5754734375Q3.01661875,11.9165034375,2.08463575,11.9165034375Q1.97280375,11.9165034375,1.86157675,11.9274334375Q1.81543475,11.9319634375,1.77073575,11.9196534375Q1.72603665,11.9073434375,1.68872545,11.8798134375Q1.65141425,11.8522934375,1.62645345,11.8132234375Q1.60149265,11.7741534375,1.59220195,11.7287234375Q1.41796875,10.8768634375,1.41796875,9.9998434375Q1.41796875,8.676043437499999,1.8110377500000001,7.4246734375Q1.82306575,7.3863834375,1.84647675,7.3537734375Q1.86988775,7.3211734375,1.9023287500000001,7.2975334375Q1.93476875,7.2739034375,1.97297775,7.2616034375Q2.0111867500000002,7.2493134375,2.05132375,7.2495934375L2.08463575,7.2498434375Q3.01661875,7.2498434375,3.67562875,6.5908334375Q4.33463875,5.9318234375,4.33463875,4.9998434375Q4.33463875,4.4740734374999995,4.10398875,4.0062234375Q4.0861487499999996,3.9700434375,4.08059875,3.9300934375Q4.0750487500000006,3.8901334375000003,4.08233875,3.8504634375Q4.089638750000001,3.8107934375,4.10903875,3.7754234374999998Q4.12843875,3.7400634375,4.15797875,3.7125934375Q5.69472875,2.2836754375,7.70631875,1.7268344375Q7.74795875,1.7153074375,7.79104875,1.7184254375Q7.83414875,1.7215424375,7.87368875,1.7389434375Q7.91323875,1.7563444375,7.94465875,1.7860094375Q7.97606875,1.8156744375,7.99570875,1.8541624375Q8.62271875,3.0831834375,10.00129875,3.0831834375Q11.37988875,3.0831834375,12.00686875,1.8541624375Q12.02656875,1.8156744375,12.05796875,1.7860094375Q12.08936875,1.7563444375,12.12886875,1.7389434375Q12.16846875,1.7215434375,12.21156875,1.7184254375Q12.25466875,1.7153074375,12.29626875,1.7268344375Q14.30786875,2.2836784375,15.84466875,3.7125934375Q15.87416875,3.7400634375,15.89356875,3.7754234374999998Q15.91296875,3.8107934375,15.92026875,3.8504634375Q15.92756875,3.8901334375000003,15.92196875,3.9300934375Q15.91646875,3.9700434375,15.89856875,4.0062234375Q15.66796875,4.4740734374999995,15.66796875,4.9998434375Q15.66796875,5.9318234375,16.32696875,6.5908334375Q16.985968749999998,7.2498434375,17.91796875,7.2498434375L17.91626875,7.2498434375L17.95126875,7.2495934375Q17.99136875,7.2493134375,18.02966875,7.2616034375Q18.06786875,7.2738934375,18.10026875,7.2975334375Q18.13266875,7.3211734375,18.15616875,7.3537734375Q18.17956875,7.3863834375,18.19156875,7.4246734375Q18.58466875,8.6761134375,18.58466875,9.9998434375Q18.58466875,10.8768434375,18.41036875,11.7287234375Q18.40106875,11.7741534375,18.37616875,11.8132234375Q18.35116875,11.8522934375,18.31386875,11.8798234375Q18.27656875,11.9073434375,18.23186875,11.9196534375Q18.18716875,11.9319634375,18.14106875,11.9274334375Q18.02976875,11.9165034375,17.91796875,11.9165034375Q16.985968749999998,11.9165034375,16.32696875,12.5754734375Q15.66796875,13.2345734375,15.66796875,14.1664734375Q15.66796875,14.9889734375,16.19746875,15.6164734375Q16.22736875,15.6519734375,16.24256875,15.6957734375Q16.25776875,15.7395734375,16.25616875,15.7858734375Q16.25466875,15.8322734375,16.23666875,15.8749734375Q16.21866875,15.9176734375,16.18646875,15.9510734375Q14.61476875,17.584273437500002,12.45436875,18.2274734375Q12.40736875,18.2414734375,12.35846875,18.2366734375Q12.30966875,18.2317734375,12.26626875,18.2088734375Q12.22286875,18.1859734375,12.19136875,18.1483734375Q12.15986875,18.1106734375,12.14496875,18.0639734375Q11.92466875,17.3750734375,11.34049875,16.9415734375Q10.74510875,16.4998734375,10.00129875,16.4998734375Q9.25749875,16.4998734375,8.66210875,16.9415734375Q8.077908749999999,17.3750734375,7.85767875,18.0639734375Q7.84273875,18.1106734375,7.81122875,18.1483734375Q7.77971875,18.1859734375,7.73632875,18.2088734375Q7.69292875,18.2317734375,7.64408875,18.2366734375Q7.59524875,18.2414734375,7.54821875,18.2274734375Q5.387828750000001,17.584273437500002,3.81611875,15.9510734375ZM9.99999875,13.7499734375Q11.55329875,13.7499734375,12.65166875,12.6516734375Q13.74996875,11.5533034375,13.74996875,10.0000034375Q13.74996875,8.446693437499999,12.65166875,7.3483534375Q11.55329875,6.2500034375,9.99999875,6.2500034375Q8.44669875,6.2500034375,7.34834875,7.3483534375Q6.24999875,8.4467034375,6.24999875,10.0000034375Q6.24999875,11.5533034375,7.34834875,12.6516734375Q8.44669875,13.7499734375,9.99999875,13.7499734375ZM9.99999875,14.2499734375Q8.23958875,14.2499734375,6.99479875,13.0051734375Q5.74999875,11.7604034375,5.74999875,10.0000034375Q5.74999875,8.2395934375,6.99479875,6.9947934375Q8.23958875,5.7500034375,9.99999875,5.7500034375Q11.76036875,5.7500034375,13.00516875,6.9947934375Q14.24996875,8.2395934375,14.24996875,10.0000034375Q14.24996875,11.7604034375,13.00516875,13.0051734375Q11.76036875,14.2499734375,9.99999875,14.2499734375Z" fill="#6E75F9" fill-opacity="1" style="mix-blend-mode:passthrough"/></g></g></svg>