<svg xmlns="http://www.w3.org/2000/svg" xmlns:xlink="http://www.w3.org/1999/xlink" fill="none" version="1.1" width="20" height="20" viewBox="0 0 20 20"><defs><clipPath id="master_svg0_4539_58289"><rect x="0" y="0" width="20" height="20" rx="0"/></clipPath></defs><g clip-path="url(#master_svg0_4539_58289)"><g><path d="M2.5,7.1669921875L17.5,7.1669921875Q17.573900000000002,7.1669921875,17.6463,7.1814031875Q17.7188,7.1958141875,17.787,7.2240821875Q17.8553,7.2523511875,17.9167,7.2933901875Q17.978099999999998,7.3344291875,18.0303,7.3866621875Q18.0826,7.4388951875,18.1236,7.5003141875Q18.1646,7.5617341875,18.1929,7.6299791875Q18.2212,7.6982251875,18.235599999999998,7.7706741875Q18.25,7.8431236875,18.25,7.9169921875Q18.25,7.9908606875,18.235599999999998,8.0633101875Q18.2212,8.1357591875,18.1929,8.2040051875Q18.1646,8.2722501875,18.1236,8.3336701875Q18.0826,8.3950891875,18.0303,8.4473221875Q17.978099999999998,8.4995551875,17.9167,8.5405941875Q17.8553,8.5816331875,17.787,8.6099021875Q17.7188,8.6381701875,17.6463,8.652581187500001Q17.573900000000002,8.6669921875,17.5,8.6669921875L2.5,8.6669921875Q2.4261315,8.6669921875,2.353682,8.652581187500001Q2.281233,8.6381701875,2.212987,8.6099021875Q2.144742,8.5816331875,2.083322,8.5405941875Q2.021903,8.4995551875,1.96967,8.4473221875Q1.917437,8.3950891875,1.876398,8.3336701875Q1.835359,8.2722501875,1.80709,8.2040051875Q1.778822,8.1357591875,1.764411,8.0633101875Q1.75,7.9908606875,1.75,7.9169921875Q1.75,7.8431236875,1.764411,7.7706741875Q1.778822,7.6982251875,1.80709,7.6299791875Q1.835359,7.5617341875,1.876398,7.5003141875Q1.917437,7.4388951875,1.96967,7.3866621875Q2.021903,7.3344291875,2.083322,7.2933901875Q2.144742,7.2523511875,2.212987,7.2240821875Q2.281233,7.1958141875,2.353682,7.1814031875Q2.4261315,7.1669921875,2.5,7.1669921875Z" fill-rule="evenodd" fill="#052019" fill-opacity="1" style="mix-blend-mode:passthrough"/></g><g><path d="M13.030484,2.3868161875L18.0297,7.3860321875L18.03033,7.3866621875Q18.13582,7.4921521875,18.19291,7.6299821875Q18.25,7.7678121875,18.25,7.9169921875Q18.25,7.9908621875,18.235590000000002,8.0633121875Q18.22118,8.1357621875,18.19291,8.2040021875Q18.16464,8.272252187500001,18.1236,8.3336721875Q18.08256,8.395092187500001,18.03033,8.4473221875Q17.9781,8.4995521875,17.91668,8.5405921875Q17.85526,8.5816321875,17.787010000000002,8.609902187500001Q17.71877,8.6381721875,17.64632,8.6525821875Q17.57387,8.6669921875,17.5,8.6669921875Q17.35082,8.6669921875,17.212989999999998,8.609902187500001Q17.07516,8.552812187499999,16.96967,8.4473221875L16.96904,8.4466921875L11.969824,3.4474761875L11.96967,3.4473221875Q11.864181,3.3418331875,11.80709,3.2040051875Q11.75,3.0661761875,11.75,2.9169921875Q11.75,2.8431236875,11.764410999999999,2.7706741875Q11.778822,2.6982251875,11.80709,2.6299791875Q11.835359,2.5617341875,11.876398,2.5003141875Q11.917437,2.4388951875,11.96967,2.3866621875Q12.021903,2.3344291875,12.083322,2.2933901875Q12.144742,2.2523511875,12.212987,2.2240821875Q12.281233,2.1958141875,12.353682,2.1814031875Q12.4261315,2.1669921875,12.5,2.1669921875Q12.649184,2.1669921875,12.787013,2.2240821875Q12.924841,2.2811731875,13.03033,2.3866621875L13.030484,2.3868161875Z" fill-rule="evenodd" fill="#052019" fill-opacity="1" style="mix-blend-mode:passthrough"/></g><g><path d="M2.83203125,11.3330078125L17.83203125,11.3330078125Q17.905931250000002,11.3330078125,17.97833125,11.347418812499999Q18.05083125,11.3618298125,18.11903125,11.3900978125Q18.18733125,11.4183668125,18.24873125,11.4594058125Q18.310131249999998,11.5004448125,18.36233125,11.5526778125Q18.41463125,11.6049108125,18.45563125,11.6663298125Q18.49663125,11.7277498125,18.52493125,11.7959948125Q18.55323125,11.8642408125,18.567631249999998,11.9366898125Q18.58203125,12.0091393125,18.58203125,12.0830078125Q18.58203125,12.1568763125,18.567631249999998,12.2293258125Q18.55323125,12.3017748125,18.52493125,12.3700208125Q18.49663125,12.4382658125,18.45563125,12.4996858125Q18.41463125,12.5611048125,18.36233125,12.6133378125Q18.310131249999998,12.6655708125,18.24873125,12.7066098125Q18.18733125,12.7476488125,18.11903125,12.7759178125Q18.05083125,12.8041858125,17.97833125,12.818596812500001Q17.905931250000002,12.8330078125,17.83203125,12.8330078125L2.83203125,12.8330078125Q2.75816275,12.8330078125,2.68571325,12.818596812500001Q2.61326425,12.8041858125,2.54501825,12.7759178125Q2.47677325,12.7476488125,2.41535325,12.7066098125Q2.35393425,12.6655708125,2.30170125,12.6133378125Q2.24946825,12.5611048125,2.20842925,12.4996858125Q2.16739025,12.4382658125,2.13912125,12.3700208125Q2.11085325,12.3017748125,2.09644225,12.2293258125Q2.08203125,12.1568763125,2.08203125,12.0830078125Q2.08203125,12.0091393125,2.09644225,11.9366898125Q2.11085325,11.8642408125,2.13912125,11.7959948125Q2.16739025,11.7277498125,2.20842925,11.6663298125Q2.24946825,11.6049108125,2.30170125,11.5526778125Q2.35393425,11.5004448125,2.41535325,11.4594058125Q2.47677325,11.4183668125,2.54501825,11.3900978125Q2.61326425,11.3618298125,2.68571325,11.347418812499999Q2.75816275,11.3330078125,2.83203125,11.3330078125Z" fill-rule="evenodd" fill="#052019" fill-opacity="1" style="mix-blend-mode:passthrough"/></g><g><path d="M3.36251525,11.5528318125L8.36173125,16.5520478125L8.36236125,16.5526778125Q8.467851249999999,16.6581678125,8.524941250000001,16.795997812499998Q8.58203125,16.9338278125,8.58203125,17.0830078125Q8.58203125,17.1568778125,8.56762125,17.2293278125Q8.55321125,17.3017778125,8.524941250000001,17.370017812500002Q8.49667125,17.4382678125,8.45563125,17.4996878125Q8.41459125,17.5611078125,8.36236125,17.6133378125Q8.310131250000001,17.6655678125,8.24871125,17.7066078125Q8.187291250000001,17.7476478125,8.11904125,17.7759178125Q8.05080125,17.8041878125,7.97835125,17.818597812500002Q7.90590125,17.8330078125,7.83203125,17.8330078125Q7.68285125,17.8330078125,7.54502125,17.7759178125Q7.40719125,17.7188278125,7.30170125,17.6133378125L7.30107125,17.6127078125L2.30185525,12.6134918125L2.30170125,12.6133378125Q2.19621225,12.5078488125,2.13912125,12.3700208125Q2.08203125,12.2321918125,2.08203125,12.0830078125Q2.08203125,12.0091393125,2.09644225,11.9366898125Q2.11085325,11.8642408125,2.13912125,11.7959948125Q2.16739025,11.7277498125,2.20842925,11.6663298125Q2.24946825,11.6049108125,2.30170125,11.5526778125Q2.35393425,11.5004448125,2.41535325,11.4594058125Q2.47677325,11.4183668125,2.54501825,11.3900978125Q2.61326425,11.3618298125,2.68571325,11.347418812499999Q2.75816275,11.3330078125,2.83203125,11.3330078125Q2.98121525,11.3330078125,3.11904425,11.3900978125Q3.25687225,11.4471888125,3.36236125,11.5526778125L3.36251525,11.5528318125Z" fill-rule="evenodd" fill="#052019" fill-opacity="1" style="mix-blend-mode:passthrough"/></g></g></svg>