<svg xmlns="http://www.w3.org/2000/svg" xmlns:xlink="http://www.w3.org/1999/xlink" fill="none" version="1.1" width="20" height="20" viewBox="0 0 20 20"><defs><clipPath id="master_svg0_4550_55880"><rect x="0" y="0" width="20" height="20" rx="0"/></clipPath></defs><g clip-path="url(#master_svg0_4550_55880)"><g><path d="M17.26056875,3.045442125Q18.87946875,2.414192125,18.74456875,3.947228125C18.69956875,4.578488125,18.29486875,6.787868125,17.98006875,9.177618125L16.90086875,16.256628125Q16.810868749999997,17.293728125,16.00146875,17.474028125C15.19196875,17.654428125000003,13.97786875,16.842828125,13.75296875,16.662428124999998C13.57316875,16.527228125,10.38036875,14.498128125,9.25611875,13.506228125C8.94132875,13.235628125,8.58157875,12.694568125,9.30107875,12.063318125L14.02286875,7.554408125C14.56246875,7.013318125,15.10206875,5.750818125,12.85366875,7.283868125L6.55799875,11.567368125Q5.83849875,12.018238125,4.48945875,11.612448125L1.56646275,10.710658125Q0.48720874999999997,10.034318125,2.33092875,9.357948125C6.82782875,7.238738125,12.35896875,5.074448125,17.26056875,3.045442125Z" fill="#6E75F9" fill-opacity="1" style="mix-blend-mode:passthrough"/></g></g></svg>