<svg xmlns="http://www.w3.org/2000/svg" xmlns:xlink="http://www.w3.org/1999/xlink" fill="none" version="1.1" width="16" height="16" viewBox="0 0 16 16"><defs><clipPath id="master_svg0_4453_79952"><rect x="0" y="0" width="16" height="16" rx="0"/></clipPath></defs><g clip-path="url(#master_svg0_4453_79952)"><g><path d="M5.153806,2.0567803C4.9753456,2.0265665,4.9678002,2.0229982,5.0518067,2.00892505C5.212763,1.9818792,5.59281,2.0187295,5.8547270000000005,2.0866938C6.46614,2.245366,7.0225100000000005,2.651818,7.61639,3.37365L7.77417,3.56543L7.99986,3.52582C8.95072,3.35901,9.91802,3.4915700000000003,10.72708,3.89959C10.94966,4.011839999999999,11.30059,4.23531,11.34443,4.292730000000001C11.358419999999999,4.31101,11.38408,4.42883,11.401430000000001,4.55452C11.46152,4.989380000000001,11.431460000000001,5.32274,11.3096,5.571680000000001C11.243310000000001,5.70718,11.23962,5.7501,11.284189999999999,5.8660499999999995C11.31977,5.95859,11.41896,6.02706,11.517199999999999,6.02692C11.71827,6.02662,11.93467,5.67179,12.03493,5.178100000000001L12.074770000000001,4.98201L12.15367,5.07956C12.58647,5.61487,12.92641,6.3449,12.98479,6.86454L13,7L12.92727,6.87684C12.802050000000001,6.66491,12.67625,6.52062,12.51518,6.40426C12.224789999999999,6.1945,11.91775,6.12313,11.10463,6.07635C10.37023,6.03409,9.95459,5.96563,9.54244,5.8189C8.841239999999999,5.569319999999999,8.48774,5.23693,7.65479,4.04389C7.2848299999999995,3.51401,7.056150000000001,3.22081,6.82869,2.984705C6.31182,2.448227,5.803929,2.166866,5.153806,2.0567803Z" fill="#FF007A" fill-opacity="1" style="mix-blend-mode:passthrough"/></g><g><path d="M11.60899,2.916236C11.62763,2.576347,11.67211,2.352116,11.76153,2.147391C11.79692,2.0663372,11.8301,2,11.83521,2C11.84033,2,11.82496,2.0598245,11.801020000000001,2.132929C11.735990000000001,2.331653,11.72534,2.603417,11.77009,2.919651C11.82696,3.32087,11.85927,3.37874,12.26847,3.81217C12.4604,4.01546,12.68363,4.27183,12.76456,4.3819099999999995L12.9117,4.58207L12.76456,4.43902C12.5846,4.2641100000000005,12.17076,3.9229700000000003,12.079329999999999,3.8742C12.01806,3.84151,12.008939999999999,3.84205,11.971119999999999,3.8810599999999997C11.93628,3.917,11.92895,3.97099,11.924109999999999,4.22628C11.916599999999999,4.624140000000001,11.86426,4.87953,11.73797,5.13489C11.66968,5.27299,11.6589,5.24352,11.72072,5.08764C11.766860000000001,4.9712499999999995,11.77154,4.92007,11.7712,4.534879999999999C11.770489999999999,3.76103,11.681840000000001,3.57498,11.161940000000001,3.25625C11.03022,3.1755199999999997,10.81321,3.0590599999999997,10.67971,2.99748C10.54618,2.9359,10.44012,2.882237,10.44397,2.878246C10.4587,2.863051,10.965720000000001,3.01641,11.1698,3.09775C11.47333,3.21877,11.52345,3.23445,11.56032,3.2198599999999997C11.58503,3.21009,11.59698,3.13549,11.60899,2.916236ZM5.549107,4.240130000000001C5.183746,3.7188600000000003,4.9577096,2.919587,5.00662558,2.322108L5.0217809,2.137207L5.104919,2.152946C5.261124,2.182475,5.530378,2.286354,5.656487,2.365716C6.0024999999999995,2.583498,6.1523,2.870234,6.30472,3.60655C6.34935,3.82219,6.40791,4.06625,6.4348600000000005,4.148899999999999C6.47826,4.281890000000001,6.6422,4.59254,6.77549,4.79429C6.8715,4.939579999999999,6.80774,5.00844,6.5954999999999995,4.98858C6.27139,4.95825,5.832345,4.6442499999999995,5.549107,4.240130000000001ZM11.16582,8.11986C9.45838,7.40739,8.85703,6.78897,8.85703,5.74552C8.85703,5.59196,8.86215,5.46631,8.86834,5.46631C8.874559999999999,5.46631,8.94064,5.51701,9.01515,5.578939999999999C9.36138,5.8667300000000004,9.7491,5.98967,10.82245,6.15194C11.454049999999999,6.24745,11.80949,6.32458,12.137360000000001,6.43727C13.17951,6.79545,13.82429,7.52235,13.97803,8.512419999999999C14.02272,8.80011,13.99651,9.339590000000001,13.92406,9.62393C13.86689,9.848510000000001,13.69239,10.2533,13.64609,10.26882C13.63324,10.27313,13.62067,10.22218,13.61738,10.15281C13.59982,9.78106,13.41854,9.41911,13.11411,9.14798C12.76797,8.83973,12.302900000000001,8.5943,11.16582,8.11986ZM9.96716,8.41582C9.94575,8.283909999999999,9.90867,8.11542,9.884699999999999,8.041419999999999L9.841149999999999,7.9069L9.92207,8.00104C10.034040000000001,8.13129,10.12254,8.29799,10.19754,8.51999C10.25477,8.689440000000001,10.26121,8.73981,10.26078,9.01518C10.260349999999999,9.28551,10.2532,9.342179999999999,10.20034,9.49467C10.116990000000001,9.73518,10.01355,9.905719999999999,9.839970000000001,10.08877C9.528089999999999,10.41774,9.127089999999999,10.59986,8.54844,10.67543C8.44784,10.68855,8.154679999999999,10.71067,7.89695,10.72456C7.2474,10.75955,6.81991,10.83188,6.43579,10.97168C6.3805499999999995,10.99179,6.33124,11.00398,6.32625,10.99881C6.31069,10.98279,6.57224,10.82119,6.78827,10.71335C7.09286,10.5613,7.39605,10.47833,8.07543,10.36108C8.41103,10.30314,8.7576,10.23287,8.84561,10.20491C9.67669,9.94083,10.10387,9.25937,9.96716,8.41582Z" fill="#FF007A" fill-opacity="1" style="mix-blend-mode:passthrough"/></g><g><path d="M10.37205,10.35314C10.15311,9.908157,10.10283,9.478546,10.22277,9.0778558C10.235610000000001,9.0350487,10.25625,9,10.26867,9C10.28107,9,10.332740000000001,9.0264208,10.38346,9.0586872C10.48437,9.122911,10.686720000000001,9.231038,11.22586,9.508928000000001C11.89861,9.855681,12.28217,10.124179999999999,12.54303,10.43094C12.77145,10.69961,12.91282,11.00558,12.98087,11.3787C13.01938,11.59006,12.99681,12.0986,12.93946,12.31142C12.75858,12.98247,12.33818,13.50956,11.73857,13.817129999999999C11.65071,13.86218,11.57187,13.8992,11.56333,13.899370000000001C11.5548,13.89951,11.58679,13.82258,11.634450000000001,13.72837C11.83617,13.32976,11.85913,12.942029999999999,11.70664,12.51045C11.61325,12.24619,11.422889999999999,11.92375,11.038499999999999,11.37879C10.59158,10.7452,10.48199,10.57656,10.37205,10.35314ZM4.182073,12.75402C4.793638,12.26586,5.55454,11.919080000000001,6.24769,11.81264C6.546390000000001,11.76674,7.0440000000000005,11.78496,7.32062,11.85188C7.76402,11.95916,8.160630000000001,12.19942,8.36691,12.48568C8.56851,12.765460000000001,8.655000000000001,13.009260000000001,8.745049999999999,13.55172C8.78055,13.76569,8.8192,13.98057,8.83089,14.029219999999999C8.898489999999999,14.31034,9.03011,14.53506,9.193159999999999,14.64791C9.452169999999999,14.82712,9.89817,14.83827,10.336870000000001,14.676490000000001C10.411349999999999,14.64903,10.47599,14.63003,10.48053,14.63433C10.49644,14.64926,10.27554,14.78909,10.11966,14.86267C9.909970000000001,14.96169,9.743210000000001,15,9.52162,15C9.119810000000001,15,8.786200000000001,14.80674,8.50783,14.41271C8.45307,14.33516,8.329920000000001,14.10289,8.23422,13.89659C7.940329999999999,13.26284,7.79518,13.06977,7.45393,12.85849C7.15695,12.67465,6.77395,12.641729999999999,6.48583,12.77529C6.10736,12.95071,6.0017499999999995,13.40795,6.27284,13.69773C6.3805499999999995,13.81288,6.5814699999999995,13.91221,6.74577,13.931519999999999C7.053100000000001,13.96767,7.31723,13.74663,7.31723,13.45328C7.31723,13.26281,7.23978,13.154119999999999,7.04483,13.07095C6.778560000000001,12.957370000000001,6.49237,13.090119999999999,6.49374,13.326609999999999C6.49433,13.427430000000001,6.54077,13.49075,6.64769,13.536480000000001C6.71627,13.56582,6.71788,13.568159999999999,6.66193,13.55717C6.41763,13.50927,6.3604,13.23085,6.55683,13.04599C6.79265,12.82409,7.28033,12.92201,7.4478,13.224920000000001C7.51815,13.352129999999999,7.52632,13.605509999999999,7.46499,13.75852C7.3276900000000005,14.10098,6.92742,14.28106,6.52136,14.18305C6.2449200000000005,14.11632,6.13236,14.04409,5.79905,13.71951C5.21986,13.15549,4.995004,13.04619,4.160012,12.92297L4,12.89936L4.182073,12.75402Z" fill="#FF007A" fill-opacity="1" style="mix-blend-mode:passthrough"/></g><g><path d="M0.281276,-0.645011C2.19124,1.6902300000000001,5.13579,5.32613,5.28199,5.5297C5.40268,5.69777,5.35727,5.84887,5.1505,5.96729C5.03551,6.03315,4.79909,6.09987,4.68072,6.09987C4.54685,6.09987,4.39603,6.03492,4.28621,5.92996C4.20856,5.85579,3.89525,5.38448,3.17196,4.25389C2.61854,3.38882,2.15539,2.67118,2.14277,2.65917C2.11355,2.63137,2.11405,2.63232,3.11554,4.43749C3.74438,5.57101,3.95667,5.97175,3.95667,6.02534C3.95667,6.13436,3.92716,6.19164,3.79367,6.34165C3.57114,6.59173,3.47168,6.87273,3.39987,7.45429C3.31934,8.10621,3.09299,8.56673,2.46567,9.3549C2.09846,9.8162,2.03837,9.9008,1.94572,10.0868C1.82899,10.3209,1.7969,10.4521,1.7839,10.7478C1.77016,11.0604,1.79693,11.2624,1.89176,11.5613C1.97475,11.823,2.06139,11.9958,2.28289,12.3414C2.47404,12.6397,2.58413,12.8613,2.58413,12.948C2.58413,13.017,2.5972,13.0171,2.89342,12.9497C3.60226,12.7884,4.17788,12.5048,4.50161,12.1573C4.70194,11.9421,4.74897,11.8233,4.7505,11.5285C4.7515,11.3357,4.74478,11.2953,4.69305,11.1844C4.60882,11.0038,4.45548,10.8537,4.11752,10.621C3.67471,10.316,3.48559,10.0705,3.43333,9.7329C3.39047,9.4559,3.4402,9.2604,3.68517,8.7432C3.93873,8.20783,4.00155,7.97969,4.04406,7.440060000000001C4.07151,7.0914,4.10953,6.95391,4.20897,6.84357C4.31266,6.72846,4.40602,6.68951,4.66266,6.65417C5.08107,6.59658,5.34749,6.48754,5.5665,6.28424C5.75648,6.10789,5.83598,5.93795,5.84819,5.68212L5.85744,5.48823L5.75128,5.36354C5.36681,4.91193,0.0238085,-1,0.000146008,-1C-0.00490353,-1,0.121599,-0.840236,0.281276,-0.645011ZM2.79994,11.1015C2.88687,10.9465,2.84069,10.7471,2.69528,10.6497C2.55788,10.5576,2.34445,10.601,2.34445,10.7209C2.34445,10.7575,2.36456,10.7841,2.40983,10.8076C2.48605,10.8471,2.4916,10.8916,2.43162,10.9824C2.37088,11.0744,2.37578,11.1552,2.44544,11.2102C2.55774,11.2987,2.71668,11.25,2.79994,11.1015ZM6.12148,6.75588C5.92508,6.81665,5.73413,7.02637,5.67501,7.24629C5.63896,7.38044,5.65942,7.6157699999999995,5.71344,7.68844C5.80069,7.805820000000001,5.88506,7.83675,6.11355,7.8351299999999995C6.56085,7.831989999999999,6.94972,7.638719999999999,6.99493,7.39709C7.03201,7.199059999999999,6.86121,6.92457,6.62596,6.80408C6.50457,6.74192,6.2464,6.71725,6.12148,6.75588ZM6.6444,7.1678C6.71339,7.06908,6.68321,6.96234,6.5659,6.89018C6.34249,6.75274,6.00461,6.86646,6.00461,7.0791C6.00461,7.184950000000001,6.18078,7.300409999999999,6.34231,7.300409999999999C6.44979,7.300409999999999,6.5969,7.235849999999999,6.6444,7.1678Z" fill="#FF007A" fill-opacity="1" style="mix-blend-mode:passthrough"/></g></g></svg>