<svg width="56" height="56" viewBox="0 0 56 56" fill="none" xmlns="http://www.w3.org/2000/svg" class="mr-2 h-10">
  <path fill-rule="evenodd" clip-rule="evenodd"
    d="M39.916 31.48c-1.107 4.646-4.868 8.278-9.599 9.224-1.343.267-2.464 1.35-2.464 2.709v6.577c0 1.358 1.114 2.48 2.472 2.342C41.602 51.18 50.56 42.26 51.696 31.044c-.976.145-1.846.588-2.724 1.038-.96.488-1.93.984-3.067 1.106-1.648.176-3.09-.458-4.547-1.098a24.009 24.009 0 00-1.442-.61zM17.422 49.981c-7.263-3.586-12.436-10.758-13.2-19.197.237.107.466.221.695.336 1.366.663 2.716 1.312 4.28 1.16 1.076-.108 2-.588 2.907-1.061 1.076-.557 2.13-1.107 3.396-1.038 1.106.061 2.014.595 2.914 1.122.695.404 1.381.808 2.152 1v15.572c.008 1.663-1.64 2.846-3.144 2.106z"
    fill="#004999"></path>
  <path fill-rule="evenodd" clip-rule="evenodd"
    d="M27.852 7.254c0-1.358 1.114-2.48 2.472-2.343 11.682 1.19 20.876 10.72 21.463 22.501h-.076c-1.259-.038-2.281.511-3.304 1.06-.96.52-1.922 1.038-3.097 1.084-1.343.054-2.457-.511-3.579-1.083-.496-.252-.992-.504-1.51-.71-.39-5.585-4.51-10.148-9.904-11.224-1.343-.267-2.465-1.35-2.465-2.708V7.254zm-7.279 21.47V9.374c0-1.67-1.64-2.853-3.143-2.113-7.394 3.647-12.62 11.01-13.23 19.64.472.19.922.42 1.373.648 1.129.573 2.235 1.137 3.578 1.084 1.175-.046 2.144-.565 3.098-1.084 1.03-.549 2.045-1.098 3.304-1.06 1.243.038 2.197.633 3.159 1.236.587.381 1.182.755 1.861 1z"
    fill="#3F75FF"></path>
</svg>