<svg xmlns="http://www.w3.org/2000/svg" xmlns:xlink="http://www.w3.org/1999/xlink" fill="none" version="1.1" width="20" height="20" viewBox="0 0 20 20"><defs><clipPath id="master_svg0_4981_61945"><rect x="0" y="0" width="20" height="20" rx="0"/></clipPath></defs><g clip-path="url(#master_svg0_4981_61945)"><g><path d="M0.9140625,5.83333355L0.9140625,16.666667Q0.91406244,17.322513,1.37781236,17.786259Q1.84155698,18.249999000000003,2.49739587,18.249999000000003L17.4973955,18.249999000000003Q18.1532445,18.249999000000003,18.6169855,17.786257Q19.0807265,17.322515,19.0807265,16.666667L19.0807265,5.83333355Q19.0807265,5.17748384,18.6169875,4.713743Q18.1532445,4.25,17.4973955,4.25L2.49739587,4.24999994Q1.84155773,4.24999994,1.3778128299999999,4.71374002Q0.9140625,5.17748545,0.9140625,5.83333355ZM2.49739587,16.75Q2.41406238,16.75,2.41406238,16.666664L2.4140625,5.83333355Q2.4140625,5.74999988,2.49739587,5.74999988L17.4973955,5.75Q17.5807285,5.75,17.5807285,5.83333355L17.5807285,16.666667Q17.5807285,16.75,17.4973955,16.75L2.49739587,16.75Z" fill-rule="evenodd" fill="#131E40" fill-opacity="1" style="mix-blend-mode:passthrough"/></g><g><path d="M9.25014997,6.9638671875Q9.25014997,6.8900134045,9.2645582,6.8175787075Q9.27896631,6.7451440075,9.30722892,6.6769120075Q9.33549154,6.6086800075,9.37652254,6.5472728575Q9.41755348,6.4858656775,9.46977597,6.4336431575Q9.52199849,6.3814206675000005,9.58340567,6.3403897275Q9.64481282,6.2993587275,9.71304482,6.2710961075Q9.78127682,6.2428334975,9.85371152,6.2284253875Q9.926146217,6.2140171575,10,6.2140171575Q10.073853783,6.2140171575,10.14628848,6.2284253875Q10.21872318,6.2428334975,10.28695518,6.2710961075Q10.35518718,6.2993587275,10.41659433,6.3403897275Q10.47800151,6.3814206675000005,10.53022403,6.4336431575Q10.58244652,6.4858656775,10.62347746,6.5472728575Q10.66450846,6.6086800075,10.69277108,6.6769120075Q10.72103369,6.7451440075,10.7354418,6.8175787075Q10.74985003,6.8900134045,10.74985003,6.9638671875L10.75,6.9638671875L10.75,15.5352954875L10.74985003,15.5352954875Q10.74985003,15.6091479875,10.7354418,15.6815824875Q10.72103369,15.7540168875,10.69277108,15.8222493875Q10.66450846,15.8904819875,10.62347746,15.9518890875Q10.58244652,16.013296087500002,10.53022403,16.065519287500003Q10.47800151,16.117740587500002,10.41659433,16.158771487499997Q10.35518718,16.1998023875,10.28695518,16.2280654875Q10.21872318,16.2563285875,10.14628848,16.270736687499998Q10.073853783,16.285144787500002,10,16.2851457875Q9.926146217,16.285144787500002,9.85371152,16.270736687499998Q9.78127682,16.2563285875,9.71304482,16.2280654875Q9.64481282,16.1998023875,9.58340567,16.158771487499997Q9.52199849,16.117740587500002,9.46977597,16.065519287500003Q9.41755348,16.013296087500002,9.37652254,15.9518890875Q9.33549154,15.8904819875,9.30722892,15.8222493875Q9.27896631,15.7540168875,9.2645582,15.6815824875Q9.25014997,15.6091479875,9.25014997,15.5352954875L9.25,15.5352954875L9.25,6.9638671875L9.25014997,6.9638671875Z" fill-rule="evenodd" fill="#131E40" fill-opacity="1" style="mix-blend-mode:passthrough"/></g><g><path d="M7.473319788,11.2630898625Q8.20056957,11.999657662499999,9.2310666,11.999657662499999L9.2310666,11.9995074625Q9.3049203,11.9995069625,9.3773549,11.9850988625Q9.4497895,11.9706907625,9.5180216,11.9424280625Q9.5862536,11.9141654625,9.6476607,11.8731346625Q9.7090678,11.832103762500001,9.7612906,11.7798814625Q9.813513,11.727658762499999,9.8545442,11.6662516625Q9.895575000000001,11.6048443625,9.9238374,11.5366122625Q9.9521003,11.4683804625,9.9665084,11.3959457625Q9.9809165,11.323511162500001,9.9809165,11.249657362499999Q9.9809165,11.1758036625,9.9665084,11.1033687625Q9.9521003,11.0309338625,9.9238377,10.9627020625Q9.895575000000001,10.8944697625,9.8545439,10.8330626625Q9.813513,10.7716555625,9.7612906,10.7194332625Q9.7090678,10.6672105625,9.6476607,10.6261796625Q9.5862536,10.5851487625,9.5180216,10.5568861625Q9.4497895,10.5286235625,9.3773549,10.514215462500001Q9.3049202,10.4998073625,9.2310665,10.4998073625L9.2310666,10.499657362499999Q8.8274904,10.499657362499999,8.5407101,10.2092025625Q8.24999988,9.9147674625,8.24999988,9.4964105625Q8.25,9.0780539625,8.5407102,8.7836189625Q8.8274906,8.4931639425,9.2310666,8.4931639425L10.4114649,8.4931640625L12.1161776,8.4931640625L12.1161776,8.4930140925Q12.190031099999999,8.4930140925,12.262465500000001,8.4786058625Q12.3348999,8.4641977525,12.403132,8.4359351425Q12.471364000000001,8.4076725225,12.5327711,8.3666415225Q12.5941782,8.3256105825,12.6464009,8.2733880925Q12.698623699999999,8.2211655725,12.7396541,8.1597583925Q12.7806854,8.0983512425,12.8089476,8.0301192425Q12.837210200000001,7.9618872425,12.8516188,7.8894525425Q12.8660269,7.8170178455,12.8660269,7.7431640625Q12.8660269,7.6693102795,12.8516183,7.5968755825Q12.837210200000001,7.5244408825,12.8089476,7.4562088825Q12.7806854,7.3879768825,12.7396541,7.3265697325Q12.698623699999999,7.2651625525,12.6464009,7.2129400325Q12.5941782,7.1607175425000005,12.5327711,7.1196866025Q12.471364000000001,7.0786556025,12.403132,7.0503929825Q12.3348999,7.0221303725,12.262465500000001,7.0077222625Q12.1900306,6.9933140325,12.1161771,6.9933140325L12.1161776,6.9931640625L10.4114649,6.9931640625L9.2310666,6.9931639425Q8.20056933,6.9931640625,7.473319735,7.7297318905Q6.75,8.4623194325,6.74999988,9.4964105625Q6.74999988,10.5305020625,7.473319788,11.2630898625Z" fill-rule="evenodd" fill="#131E40" fill-opacity="1" style="mix-blend-mode:passthrough"/></g><g><path d="M10.77182965,10.5L9.23310385,10.5L9.23310385,10.50014997Q9.15925005,10.50014997,9.08681535,10.5145582Q9.01438055,10.52896631,8.94614855,10.55722892Q8.87791657,10.58549154,8.81650937,10.62652254Q8.75510228,10.66755348,8.70287973,10.71977597Q8.65065724,10.77199849,8.60962623,10.83340567Q8.56859529,10.89481282,8.54033273,10.96304482Q8.51207012,11.03127682,8.497662009999999,11.10371152Q8.48325384,11.176146217,8.48325384,11.25Q8.48325384,11.323853783,8.49766195,11.39628848Q8.51207012,11.46872318,8.54033273,11.53695518Q8.56859529,11.60518718,8.60962629,11.66659433Q8.6506573,11.72800151,8.70287979,11.78022403Q8.75510228,11.83244652,8.81650949,11.87347746Q8.87791663,11.91450846,8.94614865,11.94277108Q9.01438065,11.97103369,9.08681545,11.9854418Q9.15925025,11.99985003,9.23310395,11.99985003L9.23310385,12L10.77182965,12Q11.17540555,12,11.462185850000001,12.2904549Q11.75289605,12.5848899,11.75289605,13.0032467Q11.75289605,13.4216034,11.462185850000001,13.7160385Q11.17540525,14.0064936,10.77182965,14.0064936L9.59143125,14.006493299999999L7.88671875,14.006493299999999L7.88671875,14.0066433Q7.812864967,14.0066433,7.74043027,14.021051400000001Q7.66799557,14.0354595,7.59976357,14.0637221Q7.53153157,14.0919847,7.47012442,14.1330156Q7.40871724,14.1740465,7.35649472,14.2262692Q7.3042722300000005,14.2784915,7.26324129,14.3398986Q7.22221029,14.4013057,7.19394767,14.4695377Q7.16568506,14.5377698,7.15127695,14.6102047Q7.13686872,14.6826396,7.13686872,14.756493299999999Q7.13686872,14.830347100000001,7.15127695,14.9027817Q7.16568506,14.9752164,7.19394767,15.043448399999999Q7.22221029,15.1116805,7.26324129,15.1730876Q7.3042722300000005,15.234494699999999,7.35649472,15.2867174Q7.40871724,15.338939700000001,7.47012442,15.3799706Q7.53153157,15.4210014,7.59976357,15.449264Q7.66799557,15.4775267,7.74043027,15.4919348Q7.812864967,15.5063429,7.88671875,15.5063434L7.88671875,15.506493599999999L10.77182965,15.506493599999999Q11.80232625,15.506493599999999,12.52957585,14.7699258Q13.25289635,14.0373378,13.25289635,13.0032467Q13.25289635,11.96915591,12.52957585,11.236567776Q11.80232625,10.5,10.77182965,10.5Z" fill-rule="evenodd" fill="#131E40" fill-opacity="1" style="mix-blend-mode:passthrough"/></g><g><path d="M3.3359375,3.25L16.6692695,3.25L16.6692695,3.24985003Q16.7431225,3.24985003,16.8155575,3.2354418000000003Q16.8879905,3.22103369,16.956222500000003,3.19277108Q17.024454499999997,3.16450846,17.0858615,3.12347746Q17.1472695,3.08244652,17.199492499999998,3.03022403Q17.2517145,2.97800151,17.292745500000002,2.91659433Q17.3337765,2.85518718,17.3620395,2.78695518Q17.3903025,2.71872318,17.4047105,2.64628848Q17.4191185,2.573853783,17.4191195,2.5Q17.4191185,2.426146217,17.4047105,2.35371152Q17.3903025,2.28127682,17.3620395,2.21304482Q17.3337765,2.14481282,17.292745500000002,2.08340567Q17.2517145,2.02199849,17.199492499999998,1.9697759700000002Q17.1472695,1.91755348,17.0858615,1.8765225399999999Q17.024454499999997,1.83549154,16.956222500000003,1.80722892Q16.8879905,1.77896631,16.8155565,1.7645582Q16.7431225,1.75014997,16.6692695,1.75014997L16.6692695,1.75L3.3359375,1.75L3.3359375,1.75014997Q3.262083717,1.75014997,3.18964902,1.7645582Q3.11721432,1.77896631,3.04898232,1.80722892Q2.98075032,1.83549154,2.91934317,1.8765225399999999Q2.85793599,1.91755348,2.80571347,1.9697759700000002Q2.75349098,2.02199849,2.71246004,2.08340567Q2.67142904,2.14481282,2.64316642,2.21304482Q2.61490381,2.28127682,2.6004956999999997,2.35371152Q2.58608747,2.426146217,2.58608747,2.5Q2.58608747,2.573853783,2.6004956999999997,2.64628848Q2.61490381,2.71872318,2.64316642,2.78695518Q2.67142904,2.85518718,2.71246004,2.91659433Q2.75349098,2.97800151,2.80571347,3.03022403Q2.85793599,3.08244652,2.91934317,3.12347746Q2.98075032,3.16450846,3.04898232,3.19277108Q3.11721432,3.22103369,3.18964902,3.2354418000000003Q3.262083717,3.24985003,3.3359375,3.24985003L3.3359375,3.25Z" fill-rule="evenodd" fill="#131E40" fill-opacity="1" style="mix-blend-mode:passthrough"/></g></g></svg>