<svg xmlns="http://www.w3.org/2000/svg" version="1.1" viewBox="0.00 0.00 392.00 392.00" width="392.00" height="392.00">
<g stroke-width="2.00" fill="none" stroke-linecap="butt">
<path stroke="#9080a9" d="&#10;  M 29.02 197.69&#10;  C 29.02 205.25 31.74 213.29 34.88 220.40&#10;  Q 41.69 235.78 53.70 252.30&#10;  Q 84.31 294.40 125.99 328.86&#10;  C 141.76 341.90 158.74 353.98 177.35 361.90&#10;  C 183.50 364.52 190.49 366.46 196.87 366.47&#10;  C 203.26 366.47 210.25 364.53 216.40 361.92&#10;  C 235.02 354.01 252.01 341.94 267.78 328.91&#10;  Q 309.49 294.48 340.13 252.40&#10;  Q 352.15 235.89 358.97 220.51&#10;  C 362.12 213.41 364.84 205.37 364.84 197.80&#10;  C 364.84 190.24 362.13 182.20 358.98 175.10&#10;  Q 352.17 159.71 340.16 143.19&#10;  Q 309.55 101.09 267.87 66.63&#10;  C 252.10 53.59 235.12 41.51 216.51 33.59&#10;  C 210.36 30.97 203.37 29.03 196.99 29.02&#10;  C 190.61 29.02 183.62 30.96 177.47 33.57&#10;  C 158.85 41.48 141.86 53.55 126.08 66.58&#10;  Q 84.38 101.01 53.74 143.09&#10;  Q 41.72 159.60 34.90 174.98&#10;  C 31.75 182.08 29.03 190.12 29.02 197.69"/>
<path stroke="#9080a9" d="&#10;  M 125.80 237.98&#10;  C 135.36 254.74 145.80 270.96 158.52 285.17&#10;  C 160.78 287.68 164.67 291.17 167.16 292.66&#10;  Q 172.28 295.71 179.80 294.07&#10;  Q 187.47 292.40 192.51 290.51&#10;  C 212.72 282.92 231.27 272.98 249.84 261.55&#10;  Q 264.56 252.50 279.00 240.76&#10;  Q 283.19 237.36 288.56 231.33&#10;  C 291.91 227.57 293.73 223.91 293.29 218.82&#10;  C 292.71 212.26 290.59 205.66 288.03 198.99&#10;  Q 280.45 179.25 268.05 157.51&#10;  C 258.48 140.74 248.04 124.52 235.32 110.32&#10;  C 233.06 107.81 229.17 104.32 226.68 102.83&#10;  Q 221.56 99.78 214.04 101.42&#10;  Q 206.37 103.09 201.33 104.98&#10;  C 181.12 112.57 162.57 122.51 144.00 133.94&#10;  Q 129.28 142.99 114.84 154.73&#10;  Q 110.65 158.13 105.28 164.16&#10;  C 101.93 167.92 100.11 171.58 100.55 176.67&#10;  C 101.13 183.23 103.25 189.83 105.82 196.50&#10;  Q 113.40 216.24 125.80 237.98"/>
</g>
<path fill="#200053" d="&#10;  M 392.00 0.00&#10;  L 392.00 392.00&#10;  L 0.00 392.00&#10;  L 0.00 0.00&#10;  L 392.00 0.00&#10;  Z&#10;  M 29.02 197.69&#10;  C 29.02 205.25 31.74 213.29 34.88 220.40&#10;  Q 41.69 235.78 53.70 252.30&#10;  Q 84.31 294.40 125.99 328.86&#10;  C 141.76 341.90 158.74 353.98 177.35 361.90&#10;  C 183.50 364.52 190.49 366.46 196.87 366.47&#10;  C 203.26 366.47 210.25 364.53 216.40 361.92&#10;  C 235.02 354.01 252.01 341.94 267.78 328.91&#10;  Q 309.49 294.48 340.13 252.40&#10;  Q 352.15 235.89 358.97 220.51&#10;  C 362.12 213.41 364.84 205.37 364.84 197.80&#10;  C 364.84 190.24 362.13 182.20 358.98 175.10&#10;  Q 352.17 159.71 340.16 143.19&#10;  Q 309.55 101.09 267.87 66.63&#10;  C 252.10 53.59 235.12 41.51 216.51 33.59&#10;  C 210.36 30.97 203.37 29.03 196.99 29.02&#10;  C 190.61 29.02 183.62 30.96 177.47 33.57&#10;  C 158.85 41.48 141.86 53.55 126.08 66.58&#10;  Q 84.38 101.01 53.74 143.09&#10;  Q 41.72 159.60 34.90 174.98&#10;  C 31.75 182.08 29.03 190.12 29.02 197.69&#10;  Z"/>
<path fill="#ffffff" d="&#10;  M 196.99 29.02&#10;  C 203.37 29.03 210.36 30.97 216.51 33.59&#10;  C 235.12 41.51 252.10 53.59 267.87 66.63&#10;  Q 309.55 101.09 340.16 143.19&#10;  Q 352.17 159.71 358.98 175.10&#10;  C 362.13 182.20 364.84 190.24 364.84 197.80&#10;  C 364.84 205.37 362.12 213.41 358.97 220.51&#10;  Q 352.15 235.89 340.13 252.40&#10;  Q 309.49 294.48 267.78 328.91&#10;  C 252.01 341.94 235.02 354.01 216.40 361.92&#10;  C 210.25 364.53 203.26 366.47 196.87 366.47&#10;  C 190.49 366.46 183.50 364.52 177.35 361.90&#10;  C 158.74 353.98 141.76 341.90 125.99 328.86&#10;  Q 84.31 294.40 53.70 252.30&#10;  Q 41.69 235.78 34.88 220.40&#10;  C 31.74 213.29 29.02 205.25 29.02 197.69&#10;  C 29.03 190.12 31.75 182.08 34.90 174.98&#10;  Q 41.72 159.60 53.74 143.09&#10;  Q 84.38 101.01 126.08 66.58&#10;  C 141.86 53.55 158.85 41.48 177.47 33.57&#10;  C 183.62 30.96 190.61 29.02 196.99 29.02&#10;  Z&#10;  M 125.80 237.98&#10;  C 135.36 254.74 145.80 270.96 158.52 285.17&#10;  C 160.78 287.68 164.67 291.17 167.16 292.66&#10;  Q 172.28 295.71 179.80 294.07&#10;  Q 187.47 292.40 192.51 290.51&#10;  C 212.72 282.92 231.27 272.98 249.84 261.55&#10;  Q 264.56 252.50 279.00 240.76&#10;  Q 283.19 237.36 288.56 231.33&#10;  C 291.91 227.57 293.73 223.91 293.29 218.82&#10;  C 292.71 212.26 290.59 205.66 288.03 198.99&#10;  Q 280.45 179.25 268.05 157.51&#10;  C 258.48 140.74 248.04 124.52 235.32 110.32&#10;  C 233.06 107.81 229.17 104.32 226.68 102.83&#10;  Q 221.56 99.78 214.04 101.42&#10;  Q 206.37 103.09 201.33 104.98&#10;  C 181.12 112.57 162.57 122.51 144.00 133.94&#10;  Q 129.28 142.99 114.84 154.73&#10;  Q 110.65 158.13 105.28 164.16&#10;  C 101.93 167.92 100.11 171.58 100.55 176.67&#10;  C 101.13 183.23 103.25 189.83 105.82 196.50&#10;  Q 113.40 216.24 125.80 237.98&#10;  Z"/>
<path fill="#200053" d="&#10;  M 125.80 237.98&#10;  Q 113.40 216.24 105.82 196.50&#10;  C 103.25 189.83 101.13 183.23 100.55 176.67&#10;  C 100.11 171.58 101.93 167.92 105.28 164.16&#10;  Q 110.65 158.13 114.84 154.73&#10;  Q 129.28 142.99 144.00 133.94&#10;  C 162.57 122.51 181.12 112.57 201.33 104.98&#10;  Q 206.37 103.09 214.04 101.42&#10;  Q 221.56 99.78 226.68 102.83&#10;  C 229.17 104.32 233.06 107.81 235.32 110.32&#10;  C 248.04 124.52 258.48 140.74 268.05 157.51&#10;  Q 280.45 179.25 288.03 198.99&#10;  C 290.59 205.66 292.71 212.26 293.29 218.82&#10;  C 293.73 223.91 291.91 227.57 288.56 231.33&#10;  Q 283.19 237.36 279.00 240.76&#10;  Q 264.56 252.50 249.84 261.55&#10;  C 231.27 272.98 212.72 282.92 192.51 290.51&#10;  Q 187.47 292.40 179.80 294.07&#10;  Q 172.28 295.71 167.16 292.66&#10;  C 164.67 291.17 160.78 287.68 158.52 285.17&#10;  C 145.80 270.96 135.36 254.74 125.80 237.98&#10;  Z"/>
</svg>